<svg version="1.1" id="Layer_1" xmlns="http://www.w3.org/2000/svg" xmlns:xlink="http://www.w3.org/1999/xlink" x="0px" y="0px"
	 width="100%" viewBox="0 0 366 366" enable-background="new 0 0 366 366" xml:space="preserve">
<path fill="#F4BC28" opacity="1.000000" stroke="none" 
	d="
M157.000000,1.000003 
	C174.687561,1.000000 192.375122,1.000000 210.239532,1.361082 
	C210.923523,2.125107 211.396423,2.824482 211.942810,2.887602 
	C225.225632,4.422081 237.910431,8.132933 250.346283,12.954833 
	C271.646088,21.213648 290.769775,33.041790 307.664032,48.299992 
	C320.239960,59.658073 330.930115,72.698883 339.793304,87.233040 
	C352.588654,108.215233 361.610199,130.545746 365.077759,154.992508 
	C365.183411,155.737564 366.335693,156.334167 367.000000,157.000000 
	C367.000000,174.687561 367.000000,192.375122 366.638916,210.239517 
	C365.874878,210.923508 365.175507,211.396439 365.112427,211.942841 
	C363.579010,225.225876 359.866455,237.910294 355.045898,250.346405 
	C346.789368,271.646576 334.959595,290.768799 319.703461,307.663422 
	C308.346375,320.240265 295.302765,330.926910 280.769623,339.791718 
	C259.788879,352.589355 237.458054,361.606964 213.013275,365.078552 
	C212.266296,365.184631 211.667755,366.335968 211.000000,367.000000 
	C193.312439,367.000000 175.624878,367.000000 157.760452,366.638916 
	C157.076431,365.874878 156.603516,365.175476 156.057129,365.112427 
	C142.774078,363.578979 130.089645,359.866486 117.653542,355.045898 
	C96.353378,346.789368 77.231194,334.959534 60.336552,319.703400 
	C47.759727,308.346344 37.073013,295.302795 28.208225,280.769623 
	C15.410619,259.788818 6.393042,237.457993 2.921457,213.013229 
	C2.815373,212.266251 1.664029,211.667725 1.000002,211.000000 
	C1.000000,195.312439 1.000000,179.624878 1.368408,163.107635 
	C3.525146,162.520203 5.313276,162.972244 7.101833,162.973938 
	C49.256699,163.014099 91.411613,163.006729 133.566513,163.001541 
	C134.898087,163.001373 136.345840,163.236923 137.521118,162.789352 
	C138.328217,162.481995 139.121323,161.223755 139.229019,160.309097 
	C139.303238,159.678787 138.302002,158.469025 137.590942,158.294586 
	C136.169632,157.945892 134.617493,158.099564 133.119385,158.099304 
	C105.793716,158.094574 78.467995,158.065796 51.142399,158.111359 
	C34.819862,158.138565 18.497517,158.284927 2.140363,157.952423 
	C5.740623,144.133530 8.539351,130.440811 13.199461,117.413940 
	C20.888786,95.919205 33.197487,76.913704 48.555828,60.055820 
	C59.865898,47.641468 72.774162,37.043995 87.175888,28.251186 
	C108.173843,15.431118 130.515091,6.395319 154.983185,2.921505 
	C155.731308,2.815292 156.331070,1.664042 157.000000,1.000003 
M102.437622,302.885071 
	C102.669525,302.657104 102.695305,302.403870 102.361725,301.247284 
	C102.453590,299.194244 102.545456,297.141174 103.205399,295.016541 
	C104.346085,294.703888 105.486771,294.391205 106.970276,294.683105 
	C107.596855,296.139313 108.223427,297.595520 108.610443,299.328217 
	C108.958076,299.570221 109.305710,299.812225 110.025345,300.755829 
	C112.150238,304.898743 116.059517,302.520599 119.525620,303.600616 
	C119.040115,302.063690 118.554619,300.526733 117.666389,298.422150 
	C116.038071,295.089539 114.409752,291.756958 112.880692,287.732300 
	C112.582710,287.152679 112.284729,286.573059 112.105278,285.313538 
	C114.075012,282.544189 116.044746,279.774811 118.767502,277.008636 
	C119.521996,277.003387 120.276489,276.998108 121.072372,277.748535 
	C121.379211,279.143494 121.686050,280.538422 122.416481,282.473999 
	C123.519188,282.663391 124.621895,282.852753 125.889412,283.956482 
	C126.620613,289.894836 127.351814,295.833191 128.307007,302.338959 
	C128.664124,302.509918 129.021240,302.680878 130.146530,303.008514 
	C131.891052,303.346527 133.627914,303.920990 135.381561,303.977905 
	C140.484497,304.143463 141.152039,302.926483 138.806915,297.572021 
	C138.476349,297.386871 138.206940,297.467438 137.250244,297.832062 
	C136.218826,296.181274 134.529556,294.616730 134.299332,292.860901 
	C133.880615,289.667389 134.328674,286.360199 135.124603,283.046875 
	C136.419449,282.373688 137.714294,281.700500 139.011261,280.155151 
	C139.020737,278.701263 139.030197,277.247345 138.796860,275.421722 
	C138.587540,275.195038 138.331329,275.052734 137.987900,274.994019 
	C137.987900,274.994019 138.004974,274.957489 137.643494,274.507385 
	C136.577316,273.324829 135.511154,272.142303 134.244431,270.129669 
	C134.337555,266.246338 131.533249,266.953094 129.125137,266.774475 
	C125.818916,266.529266 126.047264,268.916718 125.257385,271.042786 
	C124.507759,272.298492 123.758133,273.554199 122.488869,274.906647 
	C122.314629,274.932892 122.140396,274.959106 121.162926,274.989990 
	C120.088051,275.005341 119.013184,275.020691 117.071007,275.053101 
	C114.495171,275.079742 111.919342,275.106384 108.739838,275.294556 
	C108.536270,275.641907 108.332703,275.989288 108.089645,276.969360 
	C107.435646,277.999725 106.781647,279.030121 105.296776,280.018097 
	C104.464119,280.006958 103.631470,279.995850 102.742722,279.343658 
	C102.765594,278.915680 102.788467,278.487671 103.272491,277.801575 
	C103.060791,277.187195 102.849091,276.572845 102.395714,275.070099 
	C102.260223,270.731567 102.124733,266.393005 101.460327,261.471832 
	C98.959244,261.941315 96.458160,262.410767 93.985443,263.832184 
	C93.916885,274.325867 93.845345,284.819519 93.780769,295.313232 
	C93.734711,302.797211 93.738892,302.797241 101.343201,303.614655 
	C101.666397,303.642822 101.898903,303.500305 102.074707,303.072510 
	C102.074707,303.072510 102.189461,303.038910 102.437622,302.885071 
M169.074646,303.071472 
	C169.074646,303.071472 169.172012,303.039520 169.442291,302.869049 
	C169.675201,302.589966 169.658951,302.317902 169.216736,301.124969 
	C169.126343,295.715454 168.756134,290.291595 169.032425,284.900879 
	C169.261108,280.439575 167.752060,277.289368 163.601700,274.551453 
	C162.968063,274.432159 162.334442,274.312866 160.868469,274.217407 
	C157.906097,274.432343 154.943710,274.647308 151.538651,274.425079 
	C150.692307,274.949768 149.845978,275.474426 148.667679,276.413177 
	C148.365158,276.592285 148.062637,276.771393 147.438965,277.156738 
	C147.235321,277.319550 147.088913,277.523438 146.574997,278.335602 
	C146.198883,279.201111 145.822769,280.066650 144.942062,281.142639 
	C144.729050,281.826385 144.516037,282.510101 144.303040,283.193848 
	C144.830856,283.220703 145.358688,283.247559 146.777466,283.250275 
	C150.517883,282.513763 154.258301,281.777222 158.309967,281.484009 
	C158.802155,281.673798 159.294342,281.863586 159.941071,282.682770 
	C159.931763,283.113495 159.922440,283.544220 159.155411,283.980255 
	C157.758133,284.590210 156.360840,285.200165 154.214981,285.904938 
	C153.464935,285.841003 152.714874,285.777069 151.594666,285.377228 
	C151.091934,285.633789 150.589203,285.890350 150.008591,286.080963 
	C150.008591,286.080963 150.109711,286.094482 149.636505,286.215759 
	C149.335297,286.374268 149.121658,286.611603 148.419159,287.320068 
	C141.831787,293.150360 142.044983,298.899384 149.321289,303.571869 
	C149.640976,303.666260 149.960648,303.760651 150.853668,303.818695 
	C151.233948,303.861359 151.614227,303.904022 152.425858,304.474335 
	C153.619354,304.267212 154.812866,304.060059 156.460876,303.591980 
	C156.935394,303.371429 157.409912,303.150848 158.751373,302.948425 
	C159.326019,302.868683 159.900681,302.788910 161.288681,302.922974 
	C163.544449,303.093323 165.800232,303.263672 168.313583,303.607544 
	C168.657043,303.652252 168.900330,303.506104 169.074646,303.071472 
M175.310867,313.340424 
	C175.872650,313.197021 176.434418,313.053619 177.767380,312.841278 
	C181.481018,312.300079 185.332031,311.956299 186.660355,306.739258 
	C190.240875,296.450104 193.821411,286.160980 197.463745,275.694244 
	C188.444763,274.238800 188.466553,274.243256 186.989059,281.465820 
	C186.389893,284.394806 185.763809,287.325775 184.941559,290.196136 
	C184.749207,290.867615 183.709976,291.296509 183.146179,291.031097 
	C181.706894,286.022095 180.267609,281.013092 178.371506,275.397919 
	C176.003510,275.310944 173.635529,275.223969 170.868698,275.172028 
	C170.767960,275.254791 170.572754,275.399231 170.580566,275.411194 
	C170.712952,275.614105 170.870590,275.800537 171.291733,275.939911 
	C171.291733,275.939911 171.563309,275.904846 171.412689,276.627075 
	C173.384918,282.925262 175.357147,289.223450 177.175201,296.231232 
	C177.770157,297.153534 178.365097,298.075836 179.297958,299.649933 
	C178.949936,301.476685 178.601913,303.303467 177.757263,305.181488 
	C177.428299,305.291870 177.177231,305.497375 176.365082,305.934326 
	C175.931076,305.967712 175.497055,306.001099 174.571518,306.238373 
	C174.404190,306.541534 174.236862,306.844666 174.123001,307.758575 
	C174.106705,308.166595 174.090408,308.574646 173.550354,309.373535 
	C174.082764,310.547485 174.615173,311.721436 175.054367,312.933929 
	C175.054367,312.933929 175.094345,312.841309 175.310867,313.340424 
M286.538055,275.336670 
	C284.074829,275.569000 281.611603,275.801361 279.038300,276.960815 
	C279.077484,285.295959 279.116669,293.631073 279.339355,302.547638 
	C279.894958,302.743195 280.450592,302.938782 281.793640,303.201111 
	C282.846680,303.186981 283.899689,303.172852 285.383606,303.500153 
	C285.973816,303.015930 286.564056,302.531738 287.265808,301.212463 
	C287.375671,294.406708 287.485535,287.600952 288.278687,280.817841 
	C288.903198,280.604218 289.527710,280.390625 290.901184,280.293488 
	C291.984070,281.844635 293.866364,283.327972 294.004700,284.959198 
	C294.480011,290.564301 294.344910,296.221130 294.499481,302.604095 
	C297.248688,302.734741 299.997925,302.865387 302.747131,302.996063 
	C302.788147,301.009857 302.829132,299.023651 302.963867,296.225983 
	C302.933136,295.139099 302.902405,294.052246 303.371979,292.453461 
	C303.200134,290.649353 303.028290,288.845245 302.945831,286.194489 
	C302.231018,283.152252 301.516235,280.110016 300.682129,276.522003 
	C300.087158,276.151276 299.492188,275.780579 298.209778,275.115997 
	C295.477325,275.477875 292.744843,275.839783 289.285828,276.085693 
	C288.555450,276.020294 287.825104,275.954895 287.067474,275.894012 
	C287.067474,275.894012 287.070404,275.921265 286.538055,275.336670 
M199.008331,167.990082 
	C199.008331,167.990082 198.943466,167.850754 199.518723,167.808350 
	C200.010468,167.542328 200.502213,167.276291 201.417053,167.682755 
	C203.520248,167.298248 205.910446,167.362854 207.578354,166.297119 
	C208.201920,165.898682 207.141998,162.865494 207.143845,160.403229 
	C208.420395,160.825150 210.017014,160.928452 210.863281,161.778641 
	C211.447784,162.365875 210.741547,164.066467 211.078506,165.120407 
	C211.405457,166.143082 212.327682,166.975433 212.988464,167.891373 
	C213.654297,166.977005 214.581436,166.152786 214.934128,165.130402 
	C215.792419,162.642502 216.384109,160.062637 217.383743,156.426590 
	C211.465500,157.009125 205.728363,157.573822 199.298355,157.703140 
	C195.950943,156.347931 192.721039,155.836746 189.657761,158.313446 
	C183.778503,155.248810 181.913116,156.226059 181.922531,162.393860 
	C181.925293,164.199844 182.011246,166.005676 182.298798,168.371689 
	C182.872513,168.930267 183.446228,169.488846 183.133575,170.171616 
	C180.748764,170.132660 178.363968,170.093704 176.217667,169.491974 
	C176.453720,168.931976 176.689774,168.371979 177.017456,167.390030 
	C177.017456,167.390030 177.193939,166.995941 177.467880,166.777390 
	C177.338409,166.510376 177.208939,166.243362 176.650177,165.750641 
	C176.371323,165.575348 176.144196,165.348312 175.961243,164.432526 
	C175.940292,164.221191 175.919357,164.009872 176.107544,163.400787 
	C176.107544,163.400787 176.396591,163.056656 176.973679,162.867966 
	C176.970261,161.560699 176.966843,160.253433 176.911011,158.221024 
	C173.076675,155.336639 165.436020,156.313629 163.723587,159.065887 
	C161.221191,158.361588 159.100739,157.764771 156.128113,156.923203 
	C153.828598,156.923203 151.529099,156.923203 148.965714,156.923203 
	C150.088684,159.698471 150.759140,161.303101 151.387924,162.923904 
	C152.024628,164.565109 152.620132,166.222321 153.233688,167.872513 
	C153.819214,166.048523 154.441299,164.234894 154.963837,162.393036 
	C155.090088,161.948044 154.887238,161.409683 155.512283,160.508804 
	C158.248306,159.241501 157.977600,161.227325 158.229385,162.896545 
	C158.481415,164.567368 159.010590,166.196381 159.418274,167.843719 
	C160.706589,166.756500 161.994919,165.669296 162.214951,165.483612 
	C164.929779,166.374008 167.011414,167.056747 169.351990,168.325684 
	C170.229126,168.876892 171.106262,169.428101 171.331985,170.142151 
	C170.934402,170.955338 169.988663,172.049576 170.236069,172.532059 
	C171.202301,174.416534 172.633987,176.054337 173.735794,177.878571 
	C184.194916,195.195404 197.201202,210.083984 214.521118,220.895035 
	C224.555984,227.158752 235.227295,231.863281 247.627594,234.883759 
	C247.627594,228.323395 247.368134,222.385223 247.713745,216.482498 
	C247.967865,212.142334 246.613113,210.045517 242.259888,208.690430 
	C228.574768,204.430420 217.266022,196.417831 208.301727,185.228806 
	C204.365479,180.315674 200.710129,175.177490 197.232849,169.634613 
	C197.833374,169.136932 198.433884,168.639236 199.008331,167.990082 
M222.362457,328.519714 
	C222.379959,327.415588 222.504044,326.300446 222.391586,325.209717 
	C222.189957,323.253754 222.515762,320.399567 221.402039,319.582611 
	C219.798645,318.406372 216.949585,318.121521 214.944321,318.647156 
	C213.971939,318.902069 213.581421,321.834747 213.172211,323.611450 
	C212.919312,324.709473 212.933670,325.956390 213.178253,327.058807 
	C213.464966,328.351105 214.131866,329.559052 214.633865,330.803589 
	C215.677185,329.874786 216.720505,328.946014 216.813446,328.863281 
	C219.307541,329.323639 221.161667,329.665894 223.727875,330.012665 
	C225.738693,330.191772 227.749527,330.370880 230.016129,330.572784 
	C230.016129,326.939301 230.176620,323.967438 229.927582,321.030304 
	C229.842392,320.025604 228.730301,319.107971 228.087387,318.150574 
	C227.385193,319.047791 226.292130,319.858826 226.070862,320.862122 
	C225.724091,322.434570 226.366318,324.281189 225.839890,325.741302 
	C225.366791,327.053589 223.884277,328.001953 222.362457,328.519714 
M225.555176,303.308105 
	C226.372131,303.439758 227.189102,303.571411 228.724213,303.843170 
	C233.417633,304.777039 237.964539,301.002350 242.809219,303.410767 
	C243.309647,303.659546 245.630615,301.996826 245.656784,301.174896 
	C245.887909,293.915253 245.790909,286.645203 245.790909,278.925507 
	C241.565369,278.925507 238.082199,278.761047 234.630005,279.015930 
	C233.443710,279.103577 231.330170,280.336975 231.382904,280.876740 
	C231.528564,282.368042 232.235428,284.563019 233.357254,285.069702 
	C238.330276,287.315735 236.132172,291.497833 235.675797,294.595093 
	C235.508636,295.729553 231.342194,296.274689 228.610107,296.765564 
	C228.197968,296.473389 227.785828,296.181213 227.236420,295.426575 
	C227.236420,295.426575 227.024292,294.993347 227.055206,294.057220 
	C226.984375,286.347412 226.913544,278.637634 227.309082,270.577850 
	C227.534454,270.050385 227.759827,269.522919 228.564041,268.746826 
	C229.374451,268.082703 230.184845,267.418579 231.646576,267.102692 
	C234.466537,268.473755 236.457428,270.171082 236.460052,273.849640 
	C236.460739,274.813477 239.345078,276.506958 240.927780,276.533905 
	C242.538330,276.561371 245.675430,274.611633 245.562149,274.104828 
	C244.773621,270.577179 244.137436,266.430054 241.848618,263.979462 
	C239.300858,261.251587 235.106873,259.721100 230.549332,262.051178 
	C230.549332,262.051178 230.072296,261.972656 229.670349,261.486328 
	C228.700027,261.628143 227.729721,261.769928 226.372360,261.867889 
	C226.372360,261.867889 226.003326,261.992523 225.341385,261.993469 
	C224.757645,262.284119 224.173904,262.574768 223.286957,262.816498 
	C223.286957,262.816498 223.014862,262.958984 222.463379,263.117310 
	C222.189713,263.380707 221.916046,263.644104 220.998672,264.047119 
	C220.029495,265.713196 219.060318,267.379272 217.544998,269.658875 
	C217.437134,277.715607 217.058350,285.783752 217.398285,293.821564 
	C217.491608,296.028015 219.735641,298.143463 221.158524,300.605255 
	C221.321579,300.790497 221.526443,300.886383 221.992889,301.479858 
	C222.343231,301.689667 222.693588,301.899445 223.270294,302.232086 
	C223.270294,302.232086 223.493378,302.103363 223.879639,302.575897 
	C224.252762,302.715515 224.625885,302.855103 225.555176,303.308105 
M76.460175,303.937653 
	C76.701256,303.928711 76.942345,303.919800 77.615326,303.960358 
	C77.615326,303.960358 78.023689,304.109436 78.478844,304.585114 
	C79.657623,304.361053 80.836395,304.136993 82.352577,303.804871 
	C82.352577,303.804871 82.704926,303.841949 83.384308,303.902100 
	C83.907906,303.550262 84.431503,303.198456 85.377571,302.371857 
	C86.908012,300.915680 88.438461,299.459503 90.458023,297.678101 
	C90.580391,297.313141 90.702759,296.948181 90.940277,295.946564 
	C90.966698,287.631470 90.993111,279.316406 91.338982,270.803711 
	C91.201263,270.535339 91.063553,270.266968 90.726883,269.326080 
	C88.060631,263.179901 83.629906,260.544189 77.461739,261.376831 
	C76.537888,261.501526 75.573944,261.491821 74.645111,261.391235 
	C67.597977,260.628052 62.230698,265.183228 62.103523,272.236542 
	C61.995514,278.227142 62.261612,284.228668 62.020752,290.211639 
	C61.745594,297.046417 64.248291,301.816864 71.406586,304.474701 
	C72.601089,304.330505 73.795586,304.186279 75.351181,303.896118 
	C75.351181,303.896118 75.739693,303.868896 76.460175,303.937653 
M156.187408,185.089828 
	C155.310028,186.079056 154.119553,186.928680 153.606186,188.080185 
	C150.311691,195.469849 145.202362,201.128342 138.260651,205.291656 
	C119.218117,216.712418 97.279510,210.497101 87.731483,190.570969 
	C85.464821,185.840576 84.133308,180.592590 82.913162,175.454102 
	C82.067986,171.894730 80.981873,169.886993 76.774239,170.138870 
	C70.636322,170.506271 64.456093,170.363815 58.301674,170.179443 
	C54.979458,170.079910 53.460388,171.447617 54.105244,174.581451 
	C55.638729,182.033859 56.335285,189.895630 59.272655,196.780197 
	C70.809006,223.819000 98.596664,239.410065 128.026108,235.707275 
	C145.690521,233.484741 160.071808,225.277756 170.415802,210.434998 
	C172.227768,207.835022 172.389572,205.759766 170.450516,203.274979 
	C165.850189,197.379868 161.357025,191.401154 156.187408,185.089828 
M71.796417,117.302673 
	C62.262566,126.895081 56.497406,138.360535 54.076767,152.708267 
	C61.716854,152.708267 68.818115,152.446640 75.887787,152.806244 
	C80.137421,153.022415 81.886894,151.528534 83.253052,147.503143 
	C90.688057,125.595879 113.045891,116.151123 134.127777,125.725311 
	C144.894974,130.615158 152.175262,139.077988 158.088181,149.000854 
	C158.936264,150.424072 160.496017,152.376892 161.789322,152.425934 
	C170.019592,152.738052 178.267517,152.584717 186.727127,152.584717 
	C168.427063,99.891190 113.104294,82.892082 71.796417,117.302673 
M284.177032,109.247498 
	C281.077271,107.632256 278.034027,105.895737 274.868835,104.420860 
	C248.465317,92.117592 216.294098,100.959267 200.037109,125.007111 
	C199.167480,126.293488 197.934357,128.412857 198.415085,129.362778 
	C202.271667,136.983688 206.500092,144.416397 211.222412,153.012848 
	C213.011154,149.562698 214.028564,147.508621 215.125671,145.498047 
	C229.842957,118.526932 264.914673,116.630547 282.251831,141.861908 
	C284.900360,154.054886 294.134857,153.410751 303.428009,152.806229 
	C306.419098,152.611664 309.433563,152.775742 312.638153,152.775742 
	C309.654755,135.544922 300.863556,122.246078 284.177032,109.247498 
M247.200409,179.571594 
	C247.199890,182.735184 247.384140,185.912521 247.150208,189.058762 
	C246.881897,192.667633 248.596237,193.745987 251.865616,193.715118 
	C259.190979,193.645905 266.517914,193.687424 273.843689,193.749954 
	C275.888947,193.767410 277.932190,194.015717 280.303192,194.180908 
	C278.784180,201.001144 274.079010,204.551651 269.891541,208.507278 
	C268.859375,209.482346 267.333313,210.697754 267.298126,211.841583 
	C267.065521,219.396347 267.177917,226.961746 267.177917,234.984161 
	C268.848480,234.597687 269.636108,234.462570 270.395203,234.233078 
	C297.510162,226.035782 311.337891,203.514130 312.854584,175.316971 
	C313.066528,171.376404 311.747894,170.119568 307.772461,170.149094 
	C289.291901,170.286392 270.808228,170.238281 252.328354,170.025238 
	C248.424591,169.980225 246.682755,171.123306 247.181686,175.115692 
	C247.325104,176.263184 247.201920,177.443985 247.200409,179.571594 
M252.500000,158.110016 
	C244.673904,158.115005 236.845566,158.031998 229.024506,158.232971 
	C228.012390,158.258987 227.037994,159.752914 226.046127,160.566895 
	C227.039047,161.376465 227.946121,162.349380 229.057480,162.933655 
	C229.711563,163.277527 230.690002,163.008240 231.522552,163.008270 
	C273.650360,163.009491 315.778198,163.010620 357.906006,163.007492 
	C359.070618,163.007401 360.358337,163.259033 361.362335,162.844803 
	C362.221130,162.490463 363.285492,161.346252 363.283325,160.554108 
	C363.281128,159.756439 362.215088,158.555023 361.364380,158.264145 
	C360.165344,157.854172 358.735352,158.099319 357.404114,158.099365 
	C322.769409,158.100204 288.134705,158.105576 252.500000,158.110016 
M250.128708,277.876404 
	C250.138504,283.706635 249.952530,289.545563 250.211395,295.364716 
	C250.488235,301.587891 253.515427,304.230988 259.334534,304.014801 
	C262.906830,303.882080 266.489685,303.675476 270.054932,303.819641 
	C273.227448,303.947906 274.717102,302.755859 274.696594,299.551758 
	C274.652985,292.722076 274.583466,285.889984 274.721436,279.062836 
	C274.791626,275.590546 273.031738,274.976135 270.044617,274.940063 
	C266.775299,274.900635 265.030823,275.733124 265.190704,279.404663 
	C265.393402,284.060089 265.427673,288.743927 265.122772,293.388489 
	C265.021484,294.931458 263.648804,296.390961 262.857330,297.888611 
	C261.572632,296.301300 259.396545,294.826477 259.179199,293.104431 
	C258.641022,288.840881 259.122498,284.458862 258.933716,280.135803 
	C258.861664,278.485870 257.997803,275.442688 257.632874,275.463440 
	C255.129959,275.605713 252.663651,276.392731 250.128708,277.876404 
M244.960938,326.333191 
	C244.959366,324.842987 245.153641,323.317566 244.894257,321.873688 
	C244.686935,320.719574 243.927689,319.664581 243.413422,318.565613 
	C242.470840,319.106537 241.370300,319.492798 240.638519,320.240112 
	C240.106689,320.783234 240.062332,321.803680 240.034103,321.890808 
	C237.434967,320.318909 235.999100,319.383331 234.468735,318.643005 
	C234.335556,318.578583 233.181320,319.799835 233.180756,320.424530 
	C233.177856,323.701569 233.371170,326.980286 233.587128,330.252441 
	C233.600861,330.460571 234.381180,330.618134 235.086975,330.919800 
	C235.645065,329.677887 236.153015,328.547485 237.056885,326.536041 
	C239.300369,327.692535 241.496063,328.824371 244.281113,330.259979 
	C244.415298,329.654846 244.688217,328.424072 244.960938,326.333191 
M207.156616,321.328949 
	C206.446960,319.431152 205.067276,316.655792 203.290359,319.071198 
	C200.970978,322.223938 200.126953,326.462036 198.891052,329.613739 
	C203.413300,329.832672 206.874176,330.000214 210.289795,330.165558 
	C210.310547,329.980927 210.464325,329.619598 210.363174,329.356171 
	C209.420090,326.899963 208.433228,324.460571 207.156616,321.328949 
M155.283035,328.064148 
	C154.684219,327.865601 153.986038,327.362244 153.503220,327.519623 
	C150.981613,328.341522 149.115372,328.050873 148.927856,324.975433 
	C148.754745,322.136383 150.152359,321.119507 152.997543,321.676483 
	C153.806931,321.834961 154.799194,321.059204 156.078995,320.569855 
	C151.857483,317.510193 148.750290,317.620911 146.511780,320.455963 
	C143.522888,324.241333 144.956924,328.148529 150.840988,332.469086 
	C152.404831,331.214264 154.004578,329.930634 155.283035,328.064148 
M174.699066,326.064270 
	C174.262314,327.524628 173.825546,328.985016 173.388794,330.445374 
	C173.616104,330.944397 173.843430,331.443420 174.070740,331.942444 
	C177.433624,327.561005 180.789688,327.422577 184.072083,331.258972 
	C184.693161,325.720581 182.280197,320.412933 178.053116,318.217834 
	C177.031250,320.636566 176.026917,323.013824 174.699066,326.064270 
M141.686325,324.745361 
	C141.093231,323.202606 140.787079,321.429993 139.802460,320.200867 
	C139.183884,319.428711 136.601349,319.020203 136.507446,319.216705 
	C134.780670,322.830566 133.296982,326.560577 131.761871,330.266022 
	C132.245285,331.038300 132.728714,331.810608 133.212128,332.582886 
	C136.193756,324.338623 140.017075,330.868011 143.842880,330.766998 
	C143.025421,328.530396 142.463501,326.992981 141.686325,324.745361 
M188.185745,329.929352 
	C191.242783,331.452789 194.890976,332.268677 196.094742,328.515594 
	C196.654877,326.769135 193.700470,323.895447 192.418030,321.669556 
	C192.864746,321.551910 194.295212,321.175110 196.606766,320.566223 
	C193.189957,317.709534 190.325577,317.253510 188.428818,319.926147 
	C185.222198,324.444427 190.411255,325.296875 192.207947,326.909698 
	C190.636078,327.798523 189.168732,328.628235 188.185745,329.929352 
M128.098862,319.241821 
	C125.871834,319.464417 123.644806,319.687012 121.417778,319.909637 
	C122.284554,322.547424 123.151329,325.185211 123.996361,327.756836 
	C124.018677,327.757843 122.680344,327.696533 121.342018,327.635223 
	C121.157242,328.188690 120.972458,328.742188 120.787682,329.295654 
	C122.428711,329.866577 124.163399,331.058502 125.683762,330.829193 
	C127.129211,330.611176 129.632202,328.364105 129.455841,327.948273 
	C128.533478,325.773376 126.906334,323.897400 125.728928,322.210724 
	C126.294586,321.726593 127.426315,320.757965 128.098862,319.241821 
M166.165833,328.123230 
	C166.701614,328.986328 167.237396,329.849396 167.773193,330.712494 
	C168.432449,329.726227 169.400345,328.822449 169.690292,327.737457 
	C170.419281,325.009705 170.842056,322.200134 171.453949,319.085632 
	C169.430420,319.085632 166.425583,319.085632 164.165176,319.085632 
	C164.950378,322.317871 165.555359,324.808289 166.165833,328.123230 
M260.849579,268.454498 
	C261.304474,264.199219 258.497498,263.618530 255.589081,264.536652 
	C254.444870,264.897858 253.280640,267.470825 253.370346,268.961670 
	C253.526367,271.554321 257.415466,271.662354 260.849579,268.454498 
M269.038086,270.808807 
	C269.808289,269.354523 270.578491,267.900238 271.348724,266.445984 
	C269.595551,265.940704 267.834686,265.070526 266.092987,265.107452 
	C265.383972,265.122498 263.953278,267.864960 264.156982,268.070190 
	C265.291748,269.213531 266.827179,269.959229 269.038086,270.808807 
z"/>
<path fill="#000000" opacity="1.000000" stroke="none" 
	d="
M156.531342,1.000003 
	C156.331070,1.664042 155.731308,2.815292 154.983185,2.921505 
	C130.515091,6.395319 108.173843,15.431118 87.175888,28.251186 
	C72.774162,37.043995 59.865898,47.641468 48.555828,60.055820 
	C33.197487,76.913704 20.888786,95.919205 13.199461,117.413940 
	C8.539351,130.440811 5.740623,144.133530 2.083220,158.276459 
	C1.707201,159.350540 1.353601,159.675278 1.000000,160.000000 
	C1.000000,107.073685 1.000000,54.147377 1.000000,1.000000 
	C52.687351,1.000000 104.375015,1.000000 156.531342,1.000003 
z"/>
<path fill="#000000" opacity="1.000000" stroke="none" 
	d="
M367.000000,156.531342 
	C366.335693,156.334167 365.183411,155.737564 365.077759,154.992508 
	C361.610199,130.545746 352.588654,108.215233 339.793304,87.233040 
	C330.930115,72.698883 320.239960,59.658073 307.664032,48.299992 
	C290.769775,33.041790 271.646088,21.213648 250.346283,12.954833 
	C237.910431,8.132933 225.225632,4.422081 211.942810,2.887602 
	C211.396423,2.824482 210.923523,2.125107 210.708191,1.361082 
	C262.927002,1.000000 314.853973,1.000000 367.000000,1.000000 
	C367.000000,52.687355 367.000000,104.375015 367.000000,156.531342 
z"/>
<path fill="#000000" opacity="1.000000" stroke="none" 
	d="
M211.468658,367.000000 
	C211.667755,366.335968 212.266296,365.184631 213.013275,365.078552 
	C237.458054,361.606964 259.788879,352.589355 280.769623,339.791718 
	C295.302765,330.926910 308.346375,320.240265 319.703461,307.663422 
	C334.959595,290.768799 346.789368,271.646576 355.045898,250.346405 
	C359.866455,237.910294 363.579010,225.225876 365.112427,211.942841 
	C365.175507,211.396439 365.874878,210.923508 366.638916,210.708176 
	C367.000000,262.927002 367.000000,314.854034 367.000000,367.000000 
	C315.312653,367.000000 263.624969,367.000000 211.468658,367.000000 
z"/>
<path fill="#000000" opacity="1.000000" stroke="none" 
	d="
M1.000002,211.468658 
	C1.664029,211.667725 2.815373,212.266251 2.921457,213.013229 
	C6.393042,237.457993 15.410619,259.788818 28.208225,280.769623 
	C37.073013,295.302795 47.759727,308.346344 60.336552,319.703400 
	C77.231194,334.959534 96.353378,346.789368 117.653542,355.045898 
	C130.089645,359.866486 142.774078,363.578979 156.057129,365.112427 
	C156.603516,365.175476 157.076431,365.874878 157.291794,366.638916 
	C105.072990,367.000000 53.145985,367.000000 1.000000,367.000000 
	C1.000000,315.312653 1.000000,263.624969 1.000002,211.468658 
z"/>
<path fill="#F9F6E4" opacity="1.000000" stroke="none" 
	d="
M1.000000,160.250000 
	C1.353601,159.675278 1.707201,159.350540 2.117944,158.701782 
	C18.497517,158.284927 34.819862,158.138565 51.142399,158.111359 
	C78.467995,158.065796 105.793716,158.094574 133.119385,158.099304 
	C134.617493,158.099564 136.169632,157.945892 137.590942,158.294586 
	C138.302002,158.469025 139.303238,159.678787 139.229019,160.309097 
	C139.121323,161.223755 138.328217,162.481995 137.521118,162.789352 
	C136.345840,163.236923 134.898087,163.001373 133.566513,163.001541 
	C91.411613,163.006729 49.256699,163.014099 7.101833,162.973938 
	C5.313276,162.972244 3.525146,162.520203 1.368408,162.638977 
	C1.000000,163.000000 1.000000,162.500000 1.373004,162.357849 
	C1.497340,161.810471 1.248671,161.405243 1.000001,161.000000 
	C1.000000,161.000000 1.000000,160.500000 1.000000,160.250000 
z"/>
<path fill="#F4BC28" opacity="1.000000" stroke="none" 
	d="
M1.000001,161.250000 
	C1.248671,161.405243 1.497340,161.810471 1.373004,162.107849 
	C1.000000,162.000000 1.000000,161.500000 1.000001,161.250000 
z"/>
<path fill="#7A7874" opacity="1.000000" stroke="none" 
	d="
M156.503967,185.273026 
	C161.357025,191.401154 165.850189,197.379868 170.450516,203.274979 
	C172.389572,205.759766 172.227768,207.835022 170.415802,210.434998 
	C160.071808,225.277756 145.690521,233.484741 128.026108,235.707275 
	C98.596664,239.410065 70.809006,223.819000 59.272655,196.780197 
	C56.335285,189.895630 55.638729,182.033859 54.105244,174.581451 
	C53.460388,171.447617 54.979458,170.079910 58.301674,170.179443 
	C64.456093,170.363815 70.636322,170.506271 76.774239,170.138870 
	C80.981873,169.886993 82.067986,171.894730 82.913162,175.454102 
	C84.133308,180.592590 85.464821,185.840576 87.731483,190.570969 
	C97.279510,210.497101 119.218117,216.712418 138.260651,205.291656 
	C145.202362,201.128342 150.311691,195.469849 153.606186,188.080185 
	C154.119553,186.928680 155.310028,186.079056 156.503967,185.273026 
z"/>
<path fill="#FEFDF8" opacity="1.000000" stroke="none" 
	d="
M72.055687,117.060257 
	C113.104294,82.892082 168.427063,99.891190 186.727127,152.584717 
	C178.267517,152.584717 170.019592,152.738052 161.789322,152.425934 
	C160.496017,152.376892 158.936264,150.424072 158.088181,149.000854 
	C152.175262,139.077988 144.894974,130.615158 134.127777,125.725311 
	C113.045891,116.151123 90.688057,125.595879 83.253052,147.503143 
	C81.886894,151.528534 80.137421,153.022415 75.887787,152.806244 
	C68.818115,152.446640 61.716854,152.708267 54.076767,152.708267 
	C56.497406,138.360535 62.262566,126.895081 72.055687,117.060257 
z"/>
<path fill="#7A7874" opacity="1.000000" stroke="none" 
	d="
M284.479248,109.448883 
	C300.863556,122.246078 309.654755,135.544922 312.638153,152.775742 
	C309.433563,152.775742 306.419098,152.611664 303.428009,152.806229 
	C294.134857,153.410751 284.900360,154.054886 282.251831,141.861908 
	C264.914673,116.630547 229.842957,118.526932 215.125671,145.498047 
	C214.028564,147.508621 213.011154,149.562698 211.222412,153.012848 
	C206.500092,144.416397 202.271667,136.983688 198.415085,129.362778 
	C197.934357,128.412857 199.167480,126.293488 200.037109,125.007111 
	C216.294098,100.959267 248.465317,92.117592 274.868835,104.420860 
	C278.034027,105.895737 281.077271,107.632256 284.479248,109.448883 
z"/>
<path fill="#7B7974" opacity="1.000000" stroke="none" 
	d="
M247.200684,179.090546 
	C247.201920,177.443985 247.325104,176.263184 247.181686,175.115692 
	C246.682755,171.123306 248.424591,169.980225 252.328354,170.025238 
	C270.808228,170.238281 289.291901,170.286392 307.772461,170.149094 
	C311.747894,170.119568 313.066528,171.376404 312.854584,175.316971 
	C311.337891,203.514130 297.510162,226.035782 270.395203,234.233078 
	C269.636108,234.462570 268.848480,234.597687 267.177917,234.984161 
	C267.177917,226.961746 267.065521,219.396347 267.298126,211.841583 
	C267.333313,210.697754 268.859375,209.482346 269.891541,208.507278 
	C274.079010,204.551651 278.784180,201.001144 280.303192,194.180908 
	C277.932190,194.015717 275.888947,193.767410 273.843689,193.749954 
	C266.517914,193.687424 259.190979,193.645905 251.865616,193.715118 
	C248.596237,193.745987 246.881897,192.667633 247.150208,189.058762 
	C247.384140,185.912521 247.199890,182.735184 247.200684,179.090546 
z"/>
<path fill="#FEFDF8" opacity="1.000000" stroke="none" 
	d="
M175.979156,170.054779 
	C178.363968,170.093704 180.748764,170.132660 184.031158,170.197540 
	C188.928238,170.196121 192.927750,170.168808 196.927246,170.141495 
	C200.710129,175.177490 204.365479,180.315674 208.301727,185.228806 
	C217.266022,196.417831 228.574768,204.430420 242.259888,208.690430 
	C246.613113,210.045517 247.967865,212.142334 247.713745,216.482498 
	C247.368134,222.385223 247.627594,228.323395 247.627594,234.883759 
	C235.227295,231.863281 224.555984,227.158752 214.521118,220.895035 
	C197.201202,210.083984 184.194916,195.195404 173.735794,177.878571 
	C172.633987,176.054337 171.202301,174.416534 170.236069,172.532059 
	C169.988663,172.049576 170.934402,170.955338 172.050903,170.155365 
	C173.839584,170.130646 174.909378,170.092712 175.979156,170.054779 
z"/>
<path fill="#817C6E" opacity="1.000000" stroke="none" 
	d="
M82.704926,303.841949 
	C82.704926,303.841949 82.352577,303.804871 81.782768,303.847717 
	C80.149872,303.963562 79.086777,304.036499 78.023689,304.109436 
	C78.023689,304.109436 77.615326,303.960358 77.355148,303.528381 
	C77.890274,300.963898 78.691460,298.833557 79.478836,296.698181 
	C80.024429,295.218506 80.972206,293.743225 81.012733,292.246277 
	C81.183174,285.950043 80.960373,279.643341 81.121956,273.346649 
	C81.218582,269.581360 78.997414,267.305389 75.974205,267.473022 
	C74.502975,267.554596 72.214806,271.042297 72.047890,273.128204 
	C71.533714,279.553650 71.784485,286.048370 71.929947,292.511902 
	C71.960472,293.868103 72.415176,295.877655 73.354393,296.430054 
	C76.568176,298.320312 75.954849,301.082672 75.739693,303.868896 
	C75.739693,303.868896 75.351181,303.896118 74.772087,303.936035 
	C73.125107,303.966644 72.057220,303.957367 70.989334,303.948059 
	C64.248291,301.816864 61.745594,297.046417 62.020752,290.211639 
	C62.261612,284.228668 61.995514,278.227142 62.103523,272.236542 
	C62.230698,265.183228 67.597977,260.628052 74.645111,261.391235 
	C75.573944,261.491821 76.537888,261.501526 77.461739,261.376831 
	C83.629906,260.544189 88.060631,263.179901 90.818390,269.916016 
	C90.946442,270.671082 90.982986,270.836212 91.019524,271.001312 
	C90.993111,279.316406 90.966698,287.631470 90.667725,296.455353 
	C90.253090,297.310547 90.111000,297.656921 89.968910,298.003326 
	C88.438461,299.459503 86.908012,300.915680 84.853394,302.650024 
	C83.787781,303.232788 83.246353,303.537384 82.704926,303.841949 
z"/>
<path fill="#F9F6E4" opacity="1.000000" stroke="none" 
	d="
M253.000000,158.110092 
	C288.134705,158.105576 322.769409,158.100204 357.404114,158.099365 
	C358.735352,158.099319 360.165344,157.854172 361.364380,158.264145 
	C362.215088,158.555023 363.281128,159.756439 363.283325,160.554108 
	C363.285492,161.346252 362.221130,162.490463 361.362335,162.844803 
	C360.358337,163.259033 359.070618,163.007401 357.906006,163.007492 
	C315.778198,163.010620 273.650360,163.009491 231.522552,163.008270 
	C230.690002,163.008240 229.711563,163.277527 229.057480,162.933655 
	C227.946121,162.349380 227.039047,161.376465 226.046127,160.566895 
	C227.037994,159.752914 228.012390,158.258987 229.024506,158.232971 
	C236.845566,158.031998 244.673904,158.115005 253.000000,158.110092 
z"/>
<path fill="#857E6A" opacity="1.000000" stroke="none" 
	d="
M250.157135,277.424255 
	C252.663651,276.392731 255.129959,275.605713 257.632874,275.463440 
	C257.997803,275.442688 258.861664,278.485870 258.933716,280.135803 
	C259.122498,284.458862 258.641022,288.840881 259.179199,293.104431 
	C259.396545,294.826477 261.572632,296.301300 262.857330,297.888611 
	C263.648804,296.390961 265.021484,294.931458 265.122772,293.388489 
	C265.427673,288.743927 265.393402,284.060089 265.190704,279.404663 
	C265.030823,275.733124 266.775299,274.900635 270.044617,274.940063 
	C273.031738,274.976135 274.791626,275.590546 274.721436,279.062836 
	C274.583466,285.889984 274.652985,292.722076 274.696594,299.551758 
	C274.717102,302.755859 273.227448,303.947906 270.054932,303.819641 
	C266.489685,303.675476 262.906830,303.882080 259.334534,304.014801 
	C253.515427,304.230988 250.488235,301.587891 250.211395,295.364716 
	C249.952530,289.545563 250.138504,283.706635 250.157135,277.424255 
M272.992676,287.516479 
	C272.988098,284.683685 273.260101,281.809326 272.843445,279.038513 
	C272.675690,277.923065 271.000092,276.262146 270.007507,276.259857 
	C269.012451,276.257538 267.189880,277.981140 267.149750,279.004028 
	C266.888672,285.659180 266.887573,292.334473 267.146667,298.989716 
	C267.186646,300.017548 268.997864,301.745178 269.996429,301.749756 
	C270.986420,301.754333 272.725494,300.070496 272.842316,298.987549 
	C273.215607,295.528015 272.988190,292.003662 272.992676,287.516479 
z"/>
<path fill="#7C7971" opacity="1.000000" stroke="none" 
	d="
M128.083023,301.771545 
	C127.351814,295.833191 126.620613,289.894836 125.917046,283.246399 
	C125.984901,282.357391 126.025124,282.178497 126.321838,281.726135 
	C126.400635,279.303558 126.222916,277.154419 126.040390,274.674438 
	C126.061958,273.903473 126.088341,273.463318 126.259087,272.921631 
	C126.307526,272.538910 126.211594,272.257721 126.041641,271.715881 
	C125.888954,271.292603 125.810295,271.130005 125.731628,270.967377 
	C126.047264,268.916718 125.818916,266.529266 129.125137,266.774475 
	C131.533249,266.953094 134.337555,266.246338 134.215271,270.926422 
	C133.650909,274.936249 135.556488,275.267395 138.004974,274.957489 
	C138.004974,274.957489 137.987900,274.994019 138.127121,275.186005 
	C138.462616,275.630981 138.720383,275.769470 139.039658,275.793457 
	C139.030197,277.247345 139.020737,278.701263 138.646362,280.611816 
	C136.992645,281.745789 135.703842,282.423126 134.415024,283.100464 
	C134.328674,286.360199 133.880615,289.667389 134.299332,292.860901 
	C134.529556,294.616730 136.218826,296.181274 137.873169,297.876282 
	C138.663635,297.894226 138.831177,297.868011 138.998718,297.841827 
	C141.152039,302.926483 140.484497,304.143463 135.381561,303.977905 
	C133.627914,303.920990 131.891052,303.346527 129.590302,302.699646 
	C128.717056,302.184357 128.400040,301.977966 128.083023,301.771545 
z"/>
<path fill="#817B6E" opacity="1.000000" stroke="none" 
	d="
M145.446655,280.932159 
	C145.822769,280.066650 146.198883,279.201111 146.982834,277.993591 
	C147.639145,277.484039 147.762299,277.250336 147.760132,276.950500 
	C148.062637,276.771393 148.365158,276.592285 149.157959,276.188843 
	C150.425934,275.597107 151.203629,275.229675 151.981339,274.862244 
	C154.943710,274.647308 157.906097,274.432343 161.517563,274.419891 
	C162.766663,274.784149 163.366684,274.945892 163.966690,275.107666 
	C167.752060,277.289368 169.261108,280.439575 169.032425,284.900879 
	C168.756134,290.291595 169.126343,295.715454 169.198975,301.824036 
	C169.178131,302.695251 169.175079,302.867371 169.172012,303.039520 
	C169.172012,303.039520 169.074646,303.071472 168.797760,303.132935 
	C168.365921,303.274292 168.210953,303.354187 168.056000,303.434021 
	C165.800232,303.263672 163.544449,303.093323 160.786301,302.381622 
	C160.160324,295.885162 160.036728,289.930054 159.913132,283.974945 
	C159.922440,283.544220 159.931763,283.113495 159.770248,282.095276 
	C159.065857,281.352112 158.532288,281.196411 157.998718,281.040710 
	C154.258301,281.777222 150.517883,282.513763 146.300415,282.862885 
	C145.697784,281.961060 145.572220,281.446594 145.446655,280.932159 
z"/>
<path fill="#807B6F" opacity="1.000000" stroke="none" 
	d="
M226.842712,270.927826 
	C226.913544,278.637634 226.984375,286.347412 226.878662,294.645203 
	C226.925964,295.451813 227.149826,295.670441 227.373688,295.889038 
	C227.785828,296.181213 228.197968,296.473389 228.804886,297.311890 
	C228.668457,299.806519 228.337250,301.754761 228.006042,303.703033 
	C227.189102,303.571411 226.372131,303.439758 225.092285,302.910370 
	C224.250717,302.376221 223.872040,302.239807 223.493378,302.103394 
	C223.493378,302.103363 223.270294,302.232086 223.007065,301.910034 
	C222.420258,301.356293 222.096695,301.124603 221.773117,300.892914 
	C221.526443,300.886383 221.321579,300.790497 221.042282,300.036011 
	C220.284027,295.809692 219.361206,292.175385 219.061981,288.490479 
	C218.536987,282.025116 218.394089,275.528748 218.091125,269.045349 
	C219.060318,267.379272 220.029495,265.713196 221.608170,263.912811 
	C222.483398,263.505310 222.749130,263.232147 223.014862,262.958984 
	C223.014862,262.958984 223.286957,262.816498 223.786774,262.861359 
	C224.858826,262.601654 225.431076,262.297089 226.003326,261.992523 
	C226.003326,261.992523 226.372360,261.867889 226.982178,261.917786 
	C228.418777,261.969330 229.245529,261.970978 230.072296,261.972656 
	C230.072296,261.972656 230.549332,262.051178 230.772522,262.519897 
	C230.995575,264.243927 230.995422,265.499207 230.995270,266.754456 
	C230.184845,267.418579 229.374451,268.082703 227.997009,268.903564 
	C227.234207,269.682800 227.038452,270.305328 226.842712,270.927826 
z"/>
<path fill="#7F7B70" opacity="1.000000" stroke="none" 
	d="
M101.989250,262.054474 
	C102.124733,266.393005 102.260223,270.731567 102.371384,275.769257 
	C102.501816,276.998840 102.656578,277.529266 102.811340,278.059692 
	C102.788467,278.487671 102.765594,278.915680 102.562683,280.010651 
	C102.467545,285.481140 102.552437,290.284637 102.637329,295.088135 
	C102.545456,297.141174 102.453590,299.194244 102.299866,301.894196 
	C102.221817,302.707031 102.205643,302.872986 102.189461,303.038910 
	C102.189461,303.038910 102.074707,303.072510 101.805634,303.146423 
	C101.388474,303.300507 101.240372,303.380707 101.092270,303.460938 
	C93.738892,302.797241 93.734711,302.797211 93.780769,295.313232 
	C93.845345,284.819519 93.916885,274.325867 94.342728,263.215973 
	C97.129753,262.417999 99.559502,262.236237 101.989250,262.054474 
z"/>
<path fill="#817B6D" opacity="1.000000" stroke="none" 
	d="
M228.365128,303.773102 
	C228.337250,301.754761 228.668457,299.806519 228.999893,297.473450 
	C231.342194,296.274689 235.508636,295.729553 235.675797,294.595093 
	C236.132172,291.497833 238.330276,287.315735 233.357254,285.069702 
	C232.235428,284.563019 231.528564,282.368042 231.382904,280.876740 
	C231.330170,280.336975 233.443710,279.103577 234.630005,279.015930 
	C238.082199,278.761047 241.565369,278.925507 245.790909,278.925507 
	C245.790909,286.645203 245.887909,293.915253 245.656784,301.174896 
	C245.630615,301.996826 243.309647,303.659546 242.809219,303.410767 
	C237.964539,301.002350 233.417633,304.777039 228.365128,303.773102 
z"/>
<path fill="#817C6D" opacity="1.000000" stroke="none" 
	d="
M174.074127,308.982666 
	C174.090408,308.574646 174.106705,308.166595 174.308182,307.312592 
	C174.683258,306.589233 174.873154,306.311890 175.063049,306.034485 
	C175.497055,306.001099 175.931076,305.967712 176.934006,305.852661 
	C177.753250,305.557434 178.003571,305.343842 178.253906,305.130219 
	C178.601913,303.303467 178.949936,301.476685 179.142029,298.980042 
	C178.433838,297.380676 177.881607,296.451141 177.329376,295.521637 
	C175.357147,289.223450 173.384918,282.925262 171.872375,276.303284 
	C174.497498,275.987671 176.662903,275.995880 178.828308,276.004089 
	C180.267609,281.013092 181.706894,286.022095 183.120056,291.837036 
	C184.074448,297.458191 185.054993,302.273438 186.035538,307.088654 
	C185.332031,311.956299 181.481018,312.300079 177.066315,312.830902 
	C175.941620,312.827454 175.517990,312.834381 175.094345,312.841309 
	C175.094345,312.841309 175.054367,312.933929 175.048462,312.570007 
	C174.719742,311.131592 174.396942,310.057129 174.074127,308.982666 
z"/>
<path fill="#E5B434" opacity="1.000000" stroke="none" 
	d="
M76.099930,303.903259 
	C75.954849,301.082672 76.568176,298.320312 73.354393,296.430054 
	C72.415176,295.877655 71.960472,293.868103 71.929947,292.511902 
	C71.784485,286.048370 71.533714,279.553650 72.047890,273.128204 
	C72.214806,271.042297 74.502975,267.554596 75.974205,267.473022 
	C78.997414,267.305389 81.218582,269.581360 81.121956,273.346649 
	C80.960373,279.643341 81.183174,285.950043 81.012733,292.246277 
	C80.972206,293.743225 80.024429,295.218506 79.478836,296.698181 
	C78.691460,298.833557 77.890274,300.963898 77.139206,303.503601 
	C76.942345,303.919800 76.701256,303.928711 76.099930,303.903259 
z"/>
<path fill="#797774" opacity="1.000000" stroke="none" 
	d="
M302.871674,292.965363 
	C302.902405,294.052246 302.933136,295.139099 302.666534,296.909790 
	C302.244232,303.694092 297.839508,301.839691 294.442444,301.858246 
	C294.344910,296.221130 294.480011,290.564301 294.004700,284.959198 
	C293.866364,283.327972 291.984070,281.844635 290.277100,280.021240 
	C289.772797,278.566559 289.892609,277.384125 290.012390,276.201691 
	C292.744843,275.839783 295.477325,275.477875 298.634521,275.522369 
	C299.639984,276.308441 300.220703,276.688110 300.801422,277.067780 
	C301.516235,280.110016 302.231018,283.152252 302.660767,286.877808 
	C302.541046,289.362549 302.706360,291.163971 302.871674,292.965363 
z"/>
<path fill="#7D7A6F" opacity="1.000000" stroke="none" 
	d="
M112.781433,288.424347 
	C114.409752,291.756958 116.038071,295.089539 117.901627,299.067810 
	C118.464577,300.890442 118.792282,302.067413 119.119995,303.244415 
	C116.059517,302.520599 112.150238,304.898743 109.813713,300.171570 
	C109.424080,299.306824 109.173393,299.128265 108.850006,299.051727 
	C108.223427,297.595520 107.596855,296.139313 106.756897,294.026428 
	C101.504456,289.086456 104.365913,284.556274 106.127655,280.060486 
	C106.781647,279.030121 107.435646,277.999725 108.352478,276.495697 
	C108.858047,275.725708 109.100777,275.429382 109.343506,275.133057 
	C111.919342,275.106384 114.495171,275.079742 117.540955,275.371277 
	C118.012085,276.128113 118.013283,276.566803 118.014481,277.005463 
	C116.044746,279.774811 114.075012,282.544189 111.822212,285.815979 
	C111.953239,287.020386 112.367340,287.722351 112.781433,288.424347 
z"/>
<path fill="#847D6C" opacity="1.000000" stroke="none" 
	d="
M287.595398,280.795197 
	C287.485535,287.600952 287.375671,294.406708 286.878174,301.643250 
	C285.977966,302.435577 285.465332,302.797150 284.952728,303.158691 
	C283.899689,303.172852 282.846680,303.186981 281.254150,302.913330 
	C280.195068,302.405762 279.675446,302.185974 279.155823,301.966217 
	C279.116669,293.631073 279.077484,285.295959 279.525208,276.486572 
	C282.364899,275.981934 284.717651,275.951599 287.070404,275.921265 
	C287.070404,275.921265 287.067474,275.894012 287.042419,276.268066 
	C287.210052,278.026459 287.402740,279.410828 287.595398,280.795197 
z"/>
<path fill="#857E6B" opacity="1.000000" stroke="none" 
	d="
M186.347946,306.913940 
	C185.054993,302.273438 184.074448,297.458191 183.077148,292.239990 
	C183.709976,291.296509 184.749207,290.867615 184.941559,290.196136 
	C185.763809,287.325775 186.389893,284.394806 186.989059,281.465820 
	C188.466553,274.243256 188.444763,274.238800 197.463745,275.694244 
	C193.821411,286.160980 190.240875,296.450104 186.347946,306.913940 
z"/>
<path fill="#F8EEC8" opacity="1.000000" stroke="none" 
	d="
M169.093063,167.739471 
	C167.011414,167.056747 164.929779,166.374008 162.214951,165.483612 
	C161.994919,165.669296 160.706589,166.756500 159.418274,167.843719 
	C159.010590,166.196381 158.481415,164.567368 158.229385,162.896545 
	C157.977600,161.227325 158.248306,159.241501 154.980988,160.508011 
	C155.293228,159.394135 156.136749,158.281052 156.980270,157.167969 
	C159.100739,157.764771 161.221191,158.361588 163.723587,159.065887 
	C165.436020,156.313629 173.076675,155.336639 176.619720,158.700333 
	C175.153763,159.536636 173.979095,159.893616 173.179001,160.136765 
	C174.269470,161.126343 175.333038,162.091507 176.396591,163.056656 
	C176.396591,163.056656 176.107544,163.400787 175.662476,163.599884 
	C174.451843,163.996094 173.686264,164.193192 172.920685,164.390289 
	C172.970963,164.616714 173.021255,164.843124 173.071533,165.069550 
	C174.037277,165.069550 175.003036,165.069550 175.968781,165.069550 
	C176.144196,165.348312 176.371323,165.575348 176.864929,166.121613 
	C177.117783,166.660385 177.155869,166.828171 177.193939,166.995941 
	C177.193939,166.995941 177.017456,167.390030 176.539337,167.656754 
	C173.738495,167.862152 171.415771,167.800812 169.093063,167.739471 
z"/>
<path fill="#807B6E" opacity="1.000000" stroke="none" 
	d="
M151.964828,285.713135 
	C152.714874,285.777069 153.464935,285.841003 154.963318,285.954773 
	C158.304382,288.316193 156.926788,289.600128 154.723877,291.233978 
	C151.941437,293.297607 152.025650,296.864746 154.862900,297.458527 
	C158.609131,298.242584 158.197311,300.394409 157.884430,302.930298 
	C157.409912,303.150848 156.935394,303.371429 155.831665,303.702759 
	C154.133133,303.857941 153.063812,303.902313 151.994507,303.946686 
	C151.614227,303.904022 151.233948,303.861359 150.399460,303.646515 
	C149.632523,303.374298 149.319809,303.274231 149.007080,303.174194 
	C142.044983,298.899384 141.831787,293.150360 148.950684,287.073944 
	C149.813492,286.687866 150.022659,286.443420 150.109711,286.094482 
	C150.109711,286.094482 150.008591,286.080963 150.372299,286.101318 
	C151.145615,285.985504 151.555222,285.849304 151.964828,285.713135 
z"/>
<path fill="#837D6C" opacity="1.000000" stroke="none" 
	d="
M231.320923,266.928589 
	C230.995422,265.499207 230.995575,264.243927 230.995636,262.612915 
	C235.106873,259.721100 239.300858,261.251587 241.848618,263.979462 
	C244.137436,266.430054 244.773621,270.577179 245.562149,274.104828 
	C245.675430,274.611633 242.538330,276.561371 240.927780,276.533905 
	C239.345078,276.506958 236.460739,274.813477 236.460052,273.849640 
	C236.457428,270.171082 234.466537,268.473755 231.320923,266.928589 
z"/>
<path fill="#F9F0CC" opacity="1.000000" stroke="none" 
	d="
M200.993973,167.010254 
	C200.502213,167.276291 200.010468,167.542328 199.161896,167.489456 
	C197.313080,166.468552 195.821075,165.766525 193.736008,164.785461 
	C195.337173,164.032242 196.444000,163.511566 197.675293,162.932327 
	C196.411407,162.024551 195.321060,161.241425 194.488297,160.643295 
	C196.436981,159.756317 198.214111,158.947418 199.991241,158.138519 
	C205.728363,157.573822 211.465500,157.009125 217.383743,156.426590 
	C216.384109,160.062637 215.792419,162.642502 214.934128,165.130402 
	C214.581436,166.152786 213.654297,166.977005 212.988464,167.891373 
	C212.327682,166.975433 211.405457,166.143082 211.078506,165.120407 
	C210.741547,164.066467 211.447784,162.365875 210.863281,161.778641 
	C210.017014,160.928452 208.420395,160.825150 206.729370,160.828522 
	C205.105042,161.253830 203.895203,161.253830 202.607590,161.253830 
	C202.770477,162.400787 202.883713,163.198029 202.672974,164.000977 
	C201.901749,164.675720 201.454498,165.344757 201.004639,166.262909 
	C201.002029,166.512039 200.993973,167.010269 200.993973,167.010254 
z"/>
<path fill="#97875D" opacity="1.000000" stroke="none" 
	d="
M244.961029,326.763245 
	C244.688217,328.424072 244.415298,329.654846 244.281113,330.259979 
	C241.496063,328.824371 239.300369,327.692535 237.056885,326.536041 
	C236.153015,328.547485 235.645065,329.677887 235.086975,330.919800 
	C234.381180,330.618134 233.600861,330.460571 233.587128,330.252441 
	C233.371170,326.980286 233.177856,323.701569 233.180756,320.424530 
	C233.181320,319.799835 234.335556,318.578583 234.468735,318.643005 
	C235.999100,319.383331 237.434967,320.318909 240.034103,321.890808 
	C240.062332,321.803680 240.106689,320.783234 240.638519,320.240112 
	C241.370300,319.492798 242.470840,319.106537 243.413422,318.565613 
	C243.927689,319.664581 244.686935,320.719574 244.894257,321.873688 
	C245.153641,323.317566 244.959366,324.842987 244.961029,326.763245 
z"/>
<path fill="#96875D" opacity="1.000000" stroke="none" 
	d="
M223.015793,330.008118 
	C221.161667,329.665894 219.307541,329.323639 216.813446,328.863281 
	C216.720505,328.946014 215.677185,329.874786 214.633881,330.803589 
	C214.131866,329.559052 213.464966,328.351105 213.178253,327.058807 
	C212.933670,325.956390 212.919312,324.709473 213.172211,323.611450 
	C213.581421,321.834747 213.971939,318.902069 214.944321,318.647156 
	C216.949585,318.121521 219.798645,318.406372 221.402039,319.582611 
	C222.515762,320.399567 222.189957,323.253754 222.391586,325.209717 
	C222.504044,326.300446 222.379959,327.415588 222.633652,329.041779 
	C222.904846,329.563843 223.015793,330.008118 223.015793,330.008118 
z"/>
<path fill="#92845E" opacity="1.000000" stroke="none" 
	d="
M207.307831,321.672638 
	C208.433228,324.460571 209.420090,326.899963 210.363174,329.356171 
	C210.464325,329.619598 210.310547,329.980927 210.289795,330.165558 
	C206.874176,330.000214 203.413300,329.832672 198.891052,329.613739 
	C200.126953,326.462036 200.970978,322.223938 203.290359,319.071198 
	C205.067276,316.655792 206.446960,319.431152 207.307831,321.672638 
z"/>
<path fill="#96865C" opacity="1.000000" stroke="none" 
	d="
M155.443680,328.355591 
	C154.004578,329.930634 152.404831,331.214264 150.840988,332.469086 
	C144.956924,328.148529 143.522888,324.241333 146.511780,320.455963 
	C148.750290,317.620911 151.857483,317.510193 156.078995,320.569855 
	C154.799194,321.059204 153.806931,321.834961 152.997543,321.676483 
	C150.152359,321.119507 148.754745,322.136383 148.927856,324.975433 
	C149.115372,328.050873 150.981613,328.341522 153.503220,327.519623 
	C153.986038,327.362244 154.684219,327.865601 155.443680,328.355591 
z"/>
<path fill="#F9F4D8" opacity="1.000000" stroke="none" 
	d="
M182.059067,167.811584 
	C182.011246,166.005676 181.925293,164.199844 181.922531,162.393860 
	C181.913116,156.226059 183.778503,155.248810 189.832550,158.906693 
	C190.009323,159.667511 190.011307,159.835083 190.010651,160.399567 
	C190.340668,162.851028 190.673325,164.905563 190.604584,167.004364 
	C187.488464,167.302963 184.773773,167.557281 182.059067,167.811584 
z"/>
<path fill="#92845E" opacity="1.000000" stroke="none" 
	d="
M174.860840,325.727661 
	C176.026917,323.013824 177.031250,320.636566 178.053116,318.217834 
	C182.280197,320.412933 184.693161,325.720581 184.072083,331.258972 
	C180.789688,327.422577 177.433624,327.561005 174.070740,331.942444 
	C173.843430,331.443420 173.616104,330.944397 173.388794,330.445374 
	C173.825546,328.985016 174.262314,327.524628 174.860840,325.727661 
z"/>
<path fill="#91845F" opacity="1.000000" stroke="none" 
	d="
M141.793945,325.100464 
	C142.463501,326.992981 143.025421,328.530396 143.842880,330.766998 
	C140.017075,330.868011 136.193756,324.338623 133.212128,332.582886 
	C132.728714,331.810608 132.245285,331.038300 131.761871,330.266022 
	C133.296982,326.560577 134.780670,322.830566 136.507446,319.216705 
	C136.601349,319.020203 139.183884,319.428711 139.802460,320.200867 
	C140.787079,321.429993 141.093231,323.202606 141.793945,325.100464 
z"/>
<path fill="#93845E" opacity="1.000000" stroke="none" 
	d="
M187.943573,329.693665 
	C189.168732,328.628235 190.636078,327.798523 192.207947,326.909698 
	C190.411255,325.296875 185.222198,324.444427 188.428818,319.926147 
	C190.325577,317.253510 193.189957,317.709534 196.606766,320.566223 
	C194.295212,321.175110 192.864746,321.551910 192.418030,321.669556 
	C193.700470,323.895447 196.654877,326.769135 196.094742,328.515594 
	C194.890976,332.268677 191.242783,331.452789 187.943573,329.693665 
z"/>
<path fill="#94855C" opacity="1.000000" stroke="none" 
	d="
M128.328461,319.515564 
	C127.426315,320.757965 126.294586,321.726593 125.728928,322.210724 
	C126.906334,323.897400 128.533478,325.773376 129.455841,327.948273 
	C129.632202,328.364105 127.129211,330.611176 125.683762,330.829193 
	C124.163399,331.058502 122.428711,329.866577 120.787682,329.295654 
	C120.972458,328.742188 121.157242,328.188690 121.342018,327.635223 
	C122.680344,327.696533 124.018677,327.757843 123.996361,327.756836 
	C123.151329,325.185211 122.284554,322.547424 121.417786,319.909607 
	C123.644806,319.687012 125.871834,319.464417 128.328461,319.515564 
z"/>
<path fill="#E0B139" opacity="1.000000" stroke="none" 
	d="
M158.317902,302.939362 
	C158.197311,300.394409 158.609131,298.242584 154.862900,297.458527 
	C152.025650,296.864746 151.941437,293.297607 154.723877,291.233978 
	C156.926788,289.600128 158.304382,288.316193 155.337616,285.907379 
	C156.360840,285.200165 157.758133,284.590210 159.534271,283.977600 
	C160.036728,289.930054 160.160324,295.885162 160.379623,302.274719 
	C159.900681,302.788910 159.326019,302.868683 158.317902,302.939362 
z"/>
<path fill="#90825F" opacity="1.000000" stroke="none" 
	d="
M166.163086,327.710968 
	C165.555359,324.808289 164.950378,322.317871 164.165176,319.085632 
	C166.425583,319.085632 169.430420,319.085632 171.453949,319.085632 
	C170.842056,322.200134 170.419281,325.009705 169.690292,327.737457 
	C169.400345,328.822449 168.432449,329.726227 167.773193,330.712494 
	C167.237396,329.849396 166.701614,328.986328 166.163086,327.710968 
z"/>
<path fill="#817B6D" opacity="1.000000" stroke="none" 
	d="
M217.818054,269.352112 
	C218.394089,275.528748 218.536987,282.025116 219.061981,288.490479 
	C219.361206,292.175385 220.284027,295.809692 220.959412,299.883728 
	C219.735641,298.143463 217.491608,296.028015 217.398285,293.821564 
	C217.058350,285.783752 217.437134,277.715607 217.818054,269.352112 
z"/>
<path fill="#D9AD3B" opacity="1.000000" stroke="none" 
	d="
M223.371826,330.010376 
	C223.015793,330.008118 222.904846,329.563843 222.875946,329.337341 
	C223.884277,328.001953 225.366791,327.053589 225.839890,325.741302 
	C226.366318,324.281189 225.724091,322.434570 226.070862,320.862122 
	C226.292130,319.858826 227.385193,319.047791 228.087387,318.150574 
	C228.730301,319.107971 229.842392,320.025604 229.927582,321.030304 
	C230.176620,323.967438 230.016129,326.939301 230.016129,330.572784 
	C227.749527,330.370880 225.738693,330.191772 223.371826,330.010376 
z"/>
<path fill="#918560" opacity="1.000000" stroke="none" 
	d="
M260.808472,268.856323 
	C257.415466,271.662354 253.526367,271.554321 253.370346,268.961670 
	C253.280640,267.470825 254.444870,264.897858 255.589081,264.536652 
	C258.497498,263.618530 261.304474,264.199219 260.808472,268.856323 
z"/>
<path fill="#FAF2D3" opacity="1.000000" stroke="none" 
	d="
M156.554199,157.045593 
	C156.136749,158.281052 155.293228,159.394135 154.642731,160.710739 
	C154.887238,161.409683 155.090088,161.948044 154.963837,162.393036 
	C154.441299,164.234894 153.819214,166.048523 153.233688,167.872513 
	C152.620132,166.222321 152.024628,164.565109 151.387924,162.923904 
	C150.759140,161.303101 150.088684,159.698471 148.965714,156.923203 
	C151.529099,156.923203 153.828598,156.923203 156.554199,157.045593 
z"/>
<path fill="#F8F0CE" opacity="1.000000" stroke="none" 
	d="
M190.013275,160.002655 
	C190.011307,159.835083 190.009323,159.667511 190.004807,159.248596 
	C192.721039,155.836746 195.950943,156.347931 199.644806,157.920837 
	C198.214111,158.947418 196.436981,159.756317 194.488297,160.643295 
	C195.321060,161.241425 196.411407,162.024551 197.675293,162.932327 
	C196.444000,163.511566 195.337173,164.032242 193.736008,164.785461 
	C195.821075,165.766525 197.313080,166.468552 198.874268,167.510651 
	C198.943466,167.850754 199.008331,167.990082 198.591797,168.013367 
	C196.452209,167.946976 194.729126,167.857300 193.003769,167.347626 
	C192.091965,164.581924 195.296555,160.460983 190.013275,160.002655 
z"/>
<path fill="#8C8163" opacity="1.000000" stroke="none" 
	d="
M268.631836,270.824829 
	C266.827179,269.959229 265.291748,269.213531 264.156982,268.070190 
	C263.953278,267.864960 265.383972,265.122498 266.092987,265.107452 
	C267.834686,265.070526 269.595551,265.940704 271.348724,266.445984 
	C270.578491,267.900238 269.808289,269.354523 268.631836,270.824829 
z"/>
<path fill="#E5B434" opacity="1.000000" stroke="none" 
	d="
M105.712212,280.039307 
	C104.365913,284.556274 101.504456,289.086456 106.585495,293.724121 
	C105.486771,294.391205 104.346085,294.703888 102.921364,295.052338 
	C102.552437,290.284637 102.467545,285.481140 102.590729,280.331177 
	C103.631470,279.995850 104.464119,280.006958 105.712212,280.039307 
z"/>
<path fill="#9D895D" opacity="1.000000" stroke="none" 
	d="
M126.045204,275.005280 
	C126.222916,277.154419 126.400635,279.303558 126.040741,281.621735 
	C124.333061,281.838318 123.162971,281.885834 121.992889,281.933380 
	C121.686050,280.538422 121.379211,279.143494 121.162537,277.117065 
	C121.490517,275.985474 121.728348,275.485382 121.966171,274.985291 
	C122.140396,274.959106 122.314629,274.932892 123.123962,274.924011 
	C124.521103,274.962677 125.283157,274.983978 126.045204,275.005280 
z"/>
<path fill="#ECC244" opacity="1.000000" stroke="none" 
	d="
M193.006058,167.767639 
	C194.729126,167.857300 196.452209,167.946976 198.604828,168.089081 
	C198.433884,168.639236 197.833374,169.136932 197.080048,169.888062 
	C192.927750,170.168808 188.928238,170.196121 184.474335,170.135437 
	C183.446228,169.488846 182.872513,168.930267 182.178925,168.091644 
	C184.773773,167.557281 187.488464,167.302963 190.762070,167.253204 
	C191.882660,167.561050 192.444366,167.664352 193.006058,167.767639 
z"/>
<path fill="#F8F0CE" opacity="1.000000" stroke="none" 
	d="
M201.205505,167.346512 
	C200.993973,167.010269 201.002029,166.512039 201.336700,166.258026 
	C202.114456,166.002075 202.557541,166.000122 203.340973,165.992218 
	C204.275238,165.624466 204.869125,165.262650 205.463028,164.900833 
	C204.643646,164.601578 203.824265,164.302307 203.002594,164.001526 
	C203.000305,164.000000 202.996948,163.995270 202.996948,163.995270 
	C202.883713,163.198029 202.770477,162.400787 202.607590,161.253830 
	C203.895203,161.253830 205.105042,161.253830 206.582275,161.143738 
	C207.141998,162.865494 208.201920,165.898682 207.578354,166.297119 
	C205.910446,167.362854 203.520248,167.298248 201.205505,167.346512 
z"/>
<path fill="#95865E" opacity="1.000000" stroke="none" 
	d="
M294.470947,302.231171 
	C297.839508,301.839691 302.244232,303.694092 302.619690,297.315552 
	C302.829132,299.023651 302.788147,301.009857 302.747131,302.996033 
	C299.997925,302.865387 297.248688,302.734741 294.470947,302.231171 
z"/>
<path fill="#ECC244" opacity="1.000000" stroke="none" 
	d="
M169.222534,168.032578 
	C171.415771,167.800812 173.738495,167.862152 176.493500,167.867737 
	C176.689774,168.371979 176.453720,168.931976 176.098419,169.773376 
	C174.909378,170.092712 173.839584,170.130646 172.376602,170.073944 
	C171.106262,169.428101 170.229126,168.876892 169.222534,168.032578 
z"/>
<path fill="#95865E" opacity="1.000000" stroke="none" 
	d="
M303.121826,292.709412 
	C302.706360,291.163971 302.541046,289.362549 302.616089,287.301147 
	C303.028290,288.845245 303.200134,290.649353 303.121826,292.709412 
z"/>
<path fill="#95865E" opacity="1.000000" stroke="none" 
	d="
M287.937042,280.806519 
	C287.402740,279.410828 287.210052,278.026459 287.056030,276.265808 
	C287.825104,275.954895 288.555450,276.020294 289.649109,276.143677 
	C289.892609,277.384125 289.772797,278.566559 289.902588,279.963013 
	C289.527710,280.390625 288.903198,280.604218 287.937042,280.806519 
z"/>
<path fill="#ECC244" opacity="1.000000" stroke="none" 
	d="
M176.685135,162.962311 
	C175.333038,162.091507 174.269470,161.126343 173.179001,160.136765 
	C173.979095,159.893616 175.153763,159.536636 176.645920,159.062897 
	C176.966843,160.253433 176.970261,161.560699 176.685135,162.962311 
z"/>
<path fill="#E0B139" opacity="1.000000" stroke="none" 
	d="
M134.769806,283.073669 
	C135.703842,282.423126 136.992645,281.745789 138.645294,281.047882 
	C137.714294,281.700500 136.419449,282.373688 134.769806,283.073669 
z"/>
<path fill="#E5B434" opacity="1.000000" stroke="none" 
	d="
M101.724792,261.763153 
	C99.559502,262.236237 97.129753,262.417999 94.328537,262.739990 
	C96.458160,262.410767 98.959244,261.941315 101.724792,261.763153 
z"/>
<path fill="#E5B434" opacity="1.000000" stroke="none" 
	d="
M119.322807,303.422516 
	C118.792282,302.067413 118.464577,300.890442 118.102997,299.351624 
	C118.554619,300.526733 119.040115,302.063690 119.322807,303.422516 
z"/>
<path fill="#E5B434" opacity="1.000000" stroke="none" 
	d="
M137.824234,274.732422 
	C135.556488,275.267395 133.650909,274.936249 134.315552,271.341461 
	C135.511154,272.142303 136.577316,273.324829 137.824234,274.732422 
z"/>
<path fill="#E5B434" opacity="1.000000" stroke="none" 
	d="
M126.040390,274.674438 
	C125.283157,274.983978 124.521103,274.962677 123.383781,274.875641 
	C123.758133,273.554199 124.507759,272.298492 125.494507,271.005066 
	C125.810295,271.130005 125.888954,271.292603 126.001373,271.977539 
	C126.061653,272.674286 126.088181,272.848724 126.114716,273.023193 
	C126.088341,273.463318 126.061958,273.903473 126.040390,274.674438 
z"/>
<path fill="#95865E" opacity="1.000000" stroke="none" 
	d="
M286.804230,275.628967 
	C284.717651,275.951599 282.364899,275.981934 279.580261,276.023010 
	C281.611603,275.801361 284.074829,275.569000 286.804230,275.628967 
z"/>
<path fill="#857E6B" opacity="1.000000" stroke="none" 
	d="
M178.599915,275.701019 
	C176.662903,275.995880 174.497498,275.987671 171.947693,275.942139 
	C171.563309,275.904846 171.291733,275.939911 171.221008,275.752655 
	C171.150299,275.565399 171.267532,275.136993 171.267532,275.136963 
	C173.635529,275.223969 176.003510,275.310944 178.599915,275.701019 
z"/>
<path fill="#E0B139" opacity="1.000000" stroke="none" 
	d="
M173.812241,309.178101 
	C174.396942,310.057129 174.719742,311.131592 175.095062,312.550720 
	C174.615173,311.721436 174.082764,310.547485 173.812241,309.178101 
z"/>
<path fill="#E5B434" opacity="1.000000" stroke="none" 
	d="
M121.564545,274.987640 
	C121.728348,275.485382 121.490517,275.985474 121.141838,276.739197 
	C120.276489,276.998108 119.521996,277.003387 118.390991,277.007050 
	C118.013283,276.566803 118.012085,276.128113 117.974602,275.362732 
	C119.013184,275.020691 120.088051,275.005341 121.564545,274.987640 
z"/>
<path fill="#E0B139" opacity="1.000000" stroke="none" 
	d="
M145.194366,281.037415 
	C145.572220,281.446594 145.697784,281.961060 145.854919,282.874939 
	C145.358688,283.247559 144.830856,283.220703 144.303040,283.193848 
	C144.516037,282.510101 144.729050,281.826385 145.194366,281.037415 
z"/>
<path fill="#E0B139" opacity="1.000000" stroke="none" 
	d="
M177.252289,295.876434 
	C177.881607,296.451141 178.433838,297.380676 178.973068,298.654175 
	C178.365097,298.075836 177.770157,297.153534 177.252289,295.876434 
z"/>
<path fill="#E5B434" opacity="1.000000" stroke="none" 
	d="
M122.204681,282.203674 
	C123.162971,281.885834 124.333061,281.838318 125.784241,281.895203 
	C126.025124,282.178497 125.984901,282.357391 125.834641,282.789246 
	C124.621895,282.852753 123.519188,282.663391 122.204681,282.203674 
z"/>
<path fill="#E0B139" opacity="1.000000" stroke="none" 
	d="
M151.759995,274.643677 
	C151.203629,275.229675 150.425934,275.597107 149.323929,275.981812 
	C149.845978,275.474426 150.692307,274.949768 151.759995,274.643677 
z"/>
<path fill="#ECC244" opacity="1.000000" stroke="none" 
	d="
M175.965012,164.751038 
	C175.003036,165.069550 174.037277,165.069550 173.071533,165.069550 
	C173.021255,164.843124 172.970963,164.616714 172.920685,164.390289 
	C173.686264,164.193192 174.451843,163.996094 175.557922,163.798782 
	C175.919357,164.009872 175.940292,164.221191 175.965012,164.751038 
z"/>
<path fill="#E5B434" opacity="1.000000" stroke="none" 
	d="
M112.831070,288.078308 
	C112.367340,287.722351 111.953239,287.020386 111.762947,286.155914 
	C112.284729,286.573059 112.582710,287.152679 112.831070,288.078308 
z"/>
<path fill="#817B6D" opacity="1.000000" stroke="none" 
	d="
M227.075897,270.752838 
	C227.038452,270.305328 227.234207,269.682800 227.707581,269.027893 
	C227.759827,269.522919 227.534454,270.050385 227.075897,270.752838 
z"/>
<path fill="#E5B434" opacity="1.000000" stroke="none" 
	d="
M103.041916,277.930634 
	C102.656578,277.529266 102.501816,276.998840 102.492218,276.213440 
	C102.849091,276.572845 103.060791,277.187195 103.041916,277.930634 
z"/>
<path fill="#E0B139" opacity="1.000000" stroke="none" 
	d="
M152.210175,304.210510 
	C153.063812,303.902313 154.133133,303.857941 155.604401,303.833252 
	C154.812866,304.060059 153.619354,304.267212 152.210175,304.210510 
z"/>
<path fill="#E5B434" opacity="1.000000" stroke="none" 
	d="
M78.251266,304.347290 
	C79.086777,304.036499 80.149872,303.963562 81.614059,303.901764 
	C80.836395,304.136993 79.657623,304.361053 78.251266,304.347290 
z"/>
<path fill="#E5B434" opacity="1.000000" stroke="none" 
	d="
M71.197960,304.211395 
	C72.057220,303.957367 73.125107,303.966644 74.591537,304.009003 
	C73.795586,304.186279 72.601089,304.330505 71.197960,304.211395 
z"/>
<path fill="#95865E" opacity="1.000000" stroke="none" 
	d="
M285.168152,303.329407 
	C285.465332,302.797150 285.977966,302.435577 286.822418,302.060791 
	C286.564056,302.531738 285.973816,303.015930 285.168152,303.329407 
z"/>
<path fill="#95865E" opacity="1.000000" stroke="none" 
	d="
M300.741760,276.794891 
	C300.220703,276.688110 299.639984,276.308441 298.978241,275.669312 
	C299.492188,275.780579 300.087158,276.151276 300.741760,276.794891 
z"/>
<path fill="#817B6D" opacity="1.000000" stroke="none" 
	d="
M229.871323,261.729492 
	C229.245529,261.970978 228.418777,261.969330 227.175705,261.939697 
	C227.729721,261.769928 228.700027,261.628143 229.871323,261.729492 
z"/>
<path fill="#E0B139" opacity="1.000000" stroke="none" 
	d="
M163.784195,274.829559 
	C163.366684,274.945892 162.766663,274.784149 161.933746,274.407959 
	C162.334442,274.312866 162.968063,274.432159 163.784195,274.829559 
z"/>
<path fill="#E0B139" opacity="1.000000" stroke="none" 
	d="
M175.202606,313.090881 
	C175.517990,312.834381 175.941620,312.827454 176.680725,312.865356 
	C176.434418,313.053619 175.872650,313.197021 175.202606,313.090881 
z"/>
<path fill="#817B6D" opacity="1.000000" stroke="none" 
	d="
M225.672363,261.992981 
	C225.431076,262.297089 224.858826,262.601654 223.938385,262.885834 
	C224.173904,262.574768 224.757645,262.284119 225.672363,261.992981 
z"/>
<path fill="#E5B434" opacity="1.000000" stroke="none" 
	d="
M83.044617,303.872009 
	C83.246353,303.537384 83.787781,303.232788 84.642151,302.887390 
	C84.431503,303.198456 83.907906,303.550262 83.044617,303.872009 
z"/>
<path fill="#95865E" opacity="1.000000" stroke="none" 
	d="
M279.247589,302.256927 
	C279.675446,302.185974 280.195068,302.405762 280.860443,302.879944 
	C280.450592,302.938782 279.894958,302.743195 279.247589,302.256927 
z"/>
<path fill="#E5B434" opacity="1.000000" stroke="none" 
	d="
M108.730225,299.189972 
	C109.173393,299.128265 109.424080,299.306824 109.627716,299.820801 
	C109.305710,299.812225 108.958076,299.570221 108.730225,299.189972 
z"/>
<path fill="#E0B139" opacity="1.000000" stroke="none" 
	d="
M158.154343,281.262360 
	C158.532288,281.196411 159.065857,281.352112 159.692963,281.780579 
	C159.294342,281.863586 158.802155,281.673798 158.154343,281.262360 
z"/>
<path fill="#E0B139" opacity="1.000000" stroke="none" 
	d="
M151.779755,285.545166 
	C151.555222,285.849304 151.145615,285.985504 150.411240,286.134277 
	C150.589203,285.890350 151.091934,285.633789 151.779755,285.545166 
z"/>
<path fill="#817B6D" opacity="1.000000" stroke="none" 
	d="
M227.305054,295.657806 
	C227.149826,295.670441 226.925964,295.451813 226.863190,295.113281 
	C227.024292,294.993347 227.236420,295.426575 227.305054,295.657806 
z"/>
<path fill="#E5B434" opacity="1.000000" stroke="none" 
	d="
M109.041672,275.213806 
	C109.100777,275.429382 108.858047,275.725708 108.372223,276.179321 
	C108.332703,275.989288 108.536270,275.641907 109.041672,275.213806 
z"/>
<path fill="#ECC244" opacity="1.000000" stroke="none" 
	d="
M177.330902,166.886658 
	C177.155869,166.828171 177.117783,166.660385 177.079575,166.234467 
	C177.208939,166.243362 177.338409,166.510376 177.330902,166.886658 
z"/>
<path fill="#E0B139" opacity="1.000000" stroke="none" 
	d="
M138.918259,275.607605 
	C138.720383,275.769470 138.462616,275.630981 138.147278,275.186401 
	C138.331329,275.052734 138.587540,275.195038 138.918259,275.607605 
z"/>
<path fill="#E0B139" opacity="1.000000" stroke="none" 
	d="
M171.068115,275.154510 
	C171.267532,275.136993 171.150299,275.565399 171.086456,275.778015 
	C170.870590,275.800537 170.712952,275.614105 170.580566,275.411194 
	C170.572754,275.399231 170.767960,275.254791 171.068115,275.154510 
z"/>
<path fill="#E0B139" opacity="1.000000" stroke="none" 
	d="
M147.599548,277.053619 
	C147.762299,277.250336 147.639145,277.484039 147.195190,277.709961 
	C147.088913,277.523438 147.235321,277.319550 147.599548,277.053619 
z"/>
<path fill="#817B6D" opacity="1.000000" stroke="none" 
	d="
M222.739105,263.038147 
	C222.749130,263.232147 222.483398,263.505310 221.930023,263.843018 
	C221.916046,263.644104 222.189713,263.380707 222.739105,263.038147 
z"/>
<path fill="#E0B139" opacity="1.000000" stroke="none" 
	d="
M149.873108,286.155121 
	C150.022659,286.443420 149.813492,286.687866 149.238892,286.877777 
	C149.121658,286.611603 149.335297,286.374268 149.873108,286.155121 
z"/>
<path fill="#E5B434" opacity="1.000000" stroke="none" 
	d="
M91.179253,270.902527 
	C90.982986,270.836212 90.946442,270.671082 90.917870,270.252258 
	C91.063553,270.266968 91.201263,270.535339 91.179253,270.902527 
z"/>
<path fill="#E0B139" opacity="1.000000" stroke="none" 
	d="
M169.307159,302.954285 
	C169.175079,302.867371 169.178131,302.695251 169.287354,302.287964 
	C169.658951,302.317902 169.675201,302.589966 169.307159,302.954285 
z"/>
<path fill="#E0B139" opacity="1.000000" stroke="none" 
	d="
M174.817291,306.136444 
	C174.873154,306.311890 174.683258,306.589233 174.281433,307.007202 
	C174.236862,306.844666 174.404190,306.541534 174.817291,306.136444 
z"/>
<path fill="#E0B139" opacity="1.000000" stroke="none" 
	d="
M178.005585,305.155853 
	C178.003571,305.343842 177.753250,305.557434 177.253494,305.784485 
	C177.177231,305.497375 177.428299,305.291870 178.005585,305.155853 
z"/>
<path fill="#E5B434" opacity="1.000000" stroke="none" 
	d="
M90.213470,297.840698 
	C90.111000,297.656921 90.253090,297.310547 90.610146,296.773682 
	C90.702759,296.948181 90.580391,297.313141 90.213470,297.840698 
z"/>
<path fill="#E0B139" opacity="1.000000" stroke="none" 
	d="
M138.902817,297.706909 
	C138.831177,297.868011 138.663635,297.894226 138.247391,297.867126 
	C138.206940,297.467438 138.476349,297.386871 138.902817,297.706909 
z"/>
<path fill="#E0B139" opacity="1.000000" stroke="none" 
	d="
M168.184784,303.520813 
	C168.210953,303.354187 168.365921,303.274292 168.782166,303.181763 
	C168.900330,303.506104 168.657043,303.652252 168.184784,303.520813 
z"/>
<path fill="#E0B139" opacity="1.000000" stroke="none" 
	d="
M149.164185,303.373047 
	C149.319809,303.274231 149.632523,303.374298 150.112793,303.664673 
	C149.960648,303.760651 149.640976,303.666260 149.164185,303.373047 
z"/>
<path fill="#E5B434" opacity="1.000000" stroke="none" 
	d="
M101.217735,303.537781 
	C101.240372,303.380707 101.388474,303.300507 101.788643,303.203735 
	C101.898903,303.500305 101.666397,303.642822 101.217735,303.537781 
z"/>
<path fill="#817B6D" opacity="1.000000" stroke="none" 
	d="
M221.882996,301.186401 
	C222.096695,301.124603 222.420258,301.356293 222.893890,301.848633 
	C222.693588,301.899445 222.343231,301.689667 221.882996,301.186401 
z"/>
<path fill="#E5B434" opacity="1.000000" stroke="none" 
	d="
M102.313538,302.961975 
	C102.205643,302.872986 102.221817,302.707031 102.376472,302.333252 
	C102.695305,302.403870 102.669525,302.657104 102.313538,302.961975 
z"/>
<path fill="#E5B434" opacity="1.000000" stroke="none" 
	d="
M128.195007,302.055237 
	C128.400040,301.977966 128.717056,302.184357 129.206207,302.621307 
	C129.021240,302.680878 128.664124,302.509918 128.195007,302.055237 
z"/>
<path fill="#817B6D" opacity="1.000000" stroke="none" 
	d="
M223.686508,302.339661 
	C223.872040,302.239807 224.250717,302.376221 224.814209,302.753662 
	C224.625885,302.855103 224.252762,302.715515 223.686508,302.339661 
z"/>
<path fill="#777776" opacity="1.000000" stroke="none" 
	d="
M272.992676,288.010406 
	C272.988190,292.003662 273.215607,295.528015 272.842316,298.987549 
	C272.725494,300.070496 270.986420,301.754333 269.996429,301.749756 
	C268.997864,301.745178 267.186646,300.017548 267.146667,298.989716 
	C266.887573,292.334473 266.888672,285.659180 267.149750,279.004028 
	C267.189880,277.981140 269.012451,276.257538 270.007507,276.259857 
	C271.000092,276.262146 272.675690,277.923065 272.843445,279.038513 
	C273.260101,281.809326 272.988098,284.683685 272.992676,288.010406 
z"/>
<path fill="#9D895D" opacity="1.000000" stroke="none" 
	d="
M126.259079,272.921631 
	C126.088181,272.848724 126.061653,272.674286 126.075401,272.238190 
	C126.211594,272.257721 126.307526,272.538910 126.259079,272.921631 
z"/>
<path fill="#F9EFCD" opacity="1.000000" stroke="none" 
	d="
M203.000610,165.998169 
	C202.557541,166.000122 202.114456,166.002075 201.339325,166.008911 
	C201.454498,165.344757 201.901749,164.675720 202.672974,164.000977 
	C202.996948,163.995270 203.000305,164.000000 203.000519,164.334015 
	C203.000687,165.111404 203.000656,165.554794 203.000610,165.998169 
z"/>
<path fill="#F9F0CC" opacity="1.000000" stroke="none" 
	d="
M193.003769,167.347626 
	C192.444366,167.664352 191.882660,167.561050 191.163483,167.208923 
	C190.673325,164.905563 190.340668,162.851028 190.010651,160.399567 
	C195.296555,160.460983 192.091965,164.581924 193.003769,167.347626 
z"/>
<path fill="#F9F0CC" opacity="1.000000" stroke="none" 
	d="
M203.340973,165.992218 
	C203.000656,165.554794 203.000687,165.111404 203.002808,164.335541 
	C203.824265,164.302307 204.643646,164.601578 205.463028,164.900833 
	C204.869125,165.262650 204.275238,165.624466 203.340973,165.992218 
z"/>
</svg>