<svg version="1.1" id="Layer_1" xmlns="http://www.w3.org/2000/svg" xmlns:xlink="http://www.w3.org/1999/xlink" x="0px" y="0px"
	 width="100%" viewBox="0 0 527 445" enable-background="new 0 0 527 445" xml:space="preserve">
<path fill="#000000" opacity="1.000000" stroke="none" 
	d="
M326.000000,446.000000 
	C217.333359,446.000000 109.166718,446.000000 1.000058,446.000000 
	C1.000039,297.666718 1.000039,149.333450 1.000019,1.000138 
	C176.666565,1.000092 352.333130,1.000092 527.999756,1.000046 
	C527.999878,149.333191 527.999878,297.666382 527.999939,445.999786 
	C460.833344,446.000000 393.666656,446.000000 326.000000,446.000000 
M191.510086,402.939056 
	C224.408264,415.679565 258.205292,419.238068 293.027496,413.181061 
	C395.888062,395.289246 464.884399,295.247833 444.754425,193.073959 
	C423.744659,86.434715 318.886963,20.184759 213.480743,46.953377 
	C120.272942,70.624130 58.622242,164.305969 75.410370,258.360352 
	C87.660980,326.993561 126.729050,375.034027 191.510086,402.939056 
z"/>
<path fill="#D0A021" opacity="1.000000" stroke="none" 
	d="
M191.149445,402.804565 
	C126.729050,375.034027 87.660980,326.993561 75.410370,258.360352 
	C58.622242,164.305969 120.272942,70.624130 213.480743,46.953377 
	C318.886963,20.184759 423.744659,86.434715 444.754425,193.073959 
	C464.884399,295.247833 395.888062,395.289246 293.027496,413.181061 
	C258.205292,419.238068 224.408264,415.679565 191.149445,402.804565 
M118.960823,348.514740 
	C133.143509,365.147736 149.730133,378.848297 168.762299,389.627289 
	C203.797424,409.469757 241.422638,417.583923 281.303772,412.737610 
	C335.302002,406.175781 378.931549,380.974335 410.942139,336.719391 
	C439.013275,297.910706 450.270386,254.247864 444.704163,206.875793 
	C439.003113,158.356262 417.198517,117.630714 379.574280,86.341568 
	C339.220123,52.782146 292.275360,38.300594 240.055908,44.267963 
	C186.212265,50.420933 142.545868,75.546410 110.592438,119.608910 
	C79.243774,162.837463 68.862648,211.141235 78.408348,263.584686 
	C84.169144,295.234161 98.106827,323.186584 118.960823,348.514740 
z"/>
<path fill="#F4BC28" opacity="1.000000" stroke="none" 
	d="
M118.719704,348.253876 
	C98.106827,323.186584 84.169144,295.234161 78.408348,263.584686 
	C68.862648,211.141235 79.243774,162.837463 110.592438,119.608910 
	C142.545868,75.546410 186.212265,50.420933 240.055908,44.267963 
	C292.275360,38.300594 339.220123,52.782146 379.574280,86.341568 
	C417.198517,117.630714 439.003113,158.356262 444.704163,206.875793 
	C450.270386,254.247864 439.013275,297.910706 410.942139,336.719391 
	C378.931549,380.974335 335.302002,406.175781 281.303772,412.737610 
	C241.422638,417.583923 203.797424,409.469757 168.762299,389.627289 
	C149.730133,378.848297 133.143509,365.147736 118.719704,348.253876 
M317.097443,344.925476 
	C317.097443,344.925476 317.038452,344.898529 317.381958,345.295105 
	C317.661743,345.502625 317.941559,345.710144 319.006744,346.068481 
	C320.329865,346.036774 321.653015,346.005066 323.491425,345.768646 
	C323.398224,344.837341 323.305023,343.906067 323.120972,342.327972 
	C323.151886,341.895020 323.182831,341.462097 323.539612,340.271210 
	C323.429260,332.505371 323.318909,324.739532 323.121429,316.311371 
	C323.149475,315.867828 323.177551,315.424255 323.326233,314.748566 
	C323.391571,314.479828 323.337982,314.235596 322.979401,313.296722 
	C320.429077,305.263519 314.505920,302.548126 303.823486,304.817841 
	C297.465851,306.409119 295.095398,309.164581 294.991852,315.479309 
	C294.888824,321.761230 295.048615,328.047485 294.947815,334.329468 
	C294.866943,339.371124 296.613129,343.352417 301.495636,346.377167 
	C301.854675,346.562592 302.213745,346.748016 303.028168,346.750275 
	C303.364136,346.728149 303.680969,346.795807 304.629669,347.354980 
	C307.092255,347.260498 309.554810,347.165985 312.582703,346.784332 
	C313.690277,346.174957 314.797882,345.565552 316.509399,344.932159 
	C316.709503,344.908691 316.909576,344.885254 317.097443,344.925476 
M246.999191,200.002747 
	C246.999191,200.002747 246.976898,199.981384 246.274933,199.990891 
	C245.808029,200.022781 245.341125,200.054688 244.312195,199.940613 
	C243.102249,201.153702 241.892303,202.366806 240.366272,203.896820 
	C239.611954,202.535080 238.900421,201.250549 238.379807,200.310715 
	C234.318619,200.310715 230.656509,200.310715 227.287460,200.310715 
	C228.426208,204.269562 229.404755,207.671432 230.383301,211.073303 
	C230.729980,211.017899 231.076660,210.962509 231.423340,210.907104 
	C232.280334,208.039551 233.137329,205.172012 233.994324,202.304459 
	C234.516190,202.433624 235.038055,202.562790 235.559921,202.691956 
	C235.891068,205.453369 236.222229,208.214783 236.726959,212.423691 
	C238.662521,209.668243 239.631348,208.289032 240.244797,207.415710 
	C242.026306,208.755630 243.422409,209.805679 245.492889,210.923599 
	C245.942657,210.969879 246.392426,211.016159 247.210022,211.549591 
	C247.792953,211.800446 248.375870,212.051285 248.958786,212.302139 
	C248.539520,212.496521 248.120239,212.690887 247.700958,212.885269 
	C248.162399,214.192413 248.623840,215.499557 249.319321,217.466812 
	C266.407623,247.407974 290.239380,268.827332 324.971558,277.857422 
	C324.971558,270.703583 324.770844,264.393066 325.050964,258.103973 
	C325.205383,254.637009 323.712555,253.417145 320.739655,252.019058 
	C312.811066,248.290421 304.175903,245.101471 297.680389,239.530655 
	C289.465851,232.485565 283.089020,223.297729 275.755005,214.476013 
	C275.174591,213.972778 274.594208,213.469528 274.386322,212.579468 
	C274.927368,212.109879 275.468414,211.640274 276.408447,211.015640 
	C276.408447,211.015640 276.815582,210.883514 277.697845,210.716614 
	C277.988983,210.647186 278.280121,210.577774 279.339813,210.734589 
	C281.503357,210.192047 283.666931,209.649490 285.830505,209.106934 
	C285.219727,207.167389 284.608978,205.227859 283.907196,202.999252 
	C284.432648,202.923340 285.750702,202.732925 287.753784,202.984558 
	C288.522675,205.594482 289.291565,208.204391 290.497253,212.297073 
	C292.088684,207.347702 293.208466,203.865097 294.438934,200.038376 
	C292.256012,200.038376 290.129517,200.038376 287.227844,200.064621 
	C284.610199,200.145432 281.992584,200.226227 278.539856,200.208481 
	C277.981293,200.165970 277.422760,200.123459 276.425781,199.917786 
	C276.425781,199.917786 275.987549,199.754089 275.366119,199.444733 
	C273.582062,199.556564 271.798004,199.668396 269.719116,200.025604 
	C269.719116,200.025604 269.377380,200.199860 268.477112,200.172058 
	C267.876801,200.177261 267.276520,200.182465 265.873322,200.061111 
	C264.252106,199.939575 262.630920,199.818039 260.737701,199.573013 
	C260.415466,199.535233 260.159302,199.649002 259.649414,200.797455 
	C259.765961,204.199127 259.882507,207.600800 260.379974,211.438065 
	C260.928619,211.980148 261.477264,212.522232 261.119629,213.198029 
	C258.363861,213.245026 255.608109,213.292023 253.079224,212.663513 
	C253.643082,211.561157 254.206955,210.458817 254.873840,209.155060 
	C253.264343,208.535278 252.042892,208.064911 250.766907,207.573547 
	C251.898880,206.742004 252.775314,206.098206 253.651749,205.454376 
	C252.794540,204.716705 251.937317,203.979019 251.498093,203.601044 
	C252.297256,202.465424 253.156250,201.244781 253.405609,199.596542 
	C251.266815,199.722473 249.128036,199.848404 246.999191,200.002747 
M262.139038,333.878723 
	C261.776642,333.903046 261.414276,333.927399 260.815399,333.225128 
	C259.863312,329.867126 258.923126,326.505676 257.956482,323.151855 
	C256.334625,317.524811 255.378357,317.056366 248.842133,319.101929 
	C251.469696,326.765411 254.045761,334.442780 256.746155,342.076172 
	C257.870636,345.254883 258.291656,347.762482 254.135803,349.170044 
	C253.070694,349.530762 252.112167,351.959442 252.213379,353.357788 
	C252.274857,354.206909 254.442322,355.521606 255.696136,355.559753 
	C261.195221,355.726929 264.638519,351.875580 265.233215,345.733002 
	C265.741760,345.041077 266.250275,344.349121 266.914917,342.931854 
	C269.387787,334.917786 271.860657,326.903717 274.355408,318.818665 
	C266.414368,317.221344 266.204651,317.349365 264.751923,324.094025 
	C264.051270,327.347015 263.372253,330.604645 262.139038,333.878723 
M164.388290,344.340820 
	C165.651169,341.394135 167.759048,338.515930 168.004715,335.486755 
	C168.551376,328.745911 168.310760,321.925385 168.119385,315.145050 
	C167.937759,308.709656 165.167908,305.916412 157.675034,304.407013 
	C155.853012,304.326996 154.024979,304.110382 152.209991,304.190186 
	C143.616287,304.568207 139.894440,308.435638 139.824249,317.015625 
	C139.780716,322.338837 140.034836,327.674438 139.753860,332.983276 
	C139.378387,340.077545 142.079010,344.882416 149.443176,347.354523 
	C150.278122,347.298950 151.113068,347.243378 152.402405,347.022034 
	C152.402405,347.022034 152.878723,346.937866 153.593689,346.976044 
	C154.071060,346.979980 154.548447,346.983948 155.562027,347.093506 
	C155.734879,347.151093 155.907715,347.208649 156.553162,347.514709 
	C157.372681,347.334442 158.192200,347.154144 159.476181,346.793640 
	C159.476181,346.793640 159.973282,346.759003 159.973282,346.759003 
	C159.973282,346.759003 160.431732,346.954285 160.979202,346.691650 
	C161.315063,346.468445 161.650925,346.245239 162.209625,345.888580 
	C162.209625,345.888580 162.465195,345.935089 163.013489,345.653381 
	C163.331711,345.398468 163.649933,345.143555 164.388290,344.340820 
M205.005966,252.731552 
	C185.987640,256.575348 171.490265,249.092590 163.959976,231.189819 
	C162.171463,226.937759 161.021454,222.337936 160.197723,217.785873 
	C159.604034,214.505203 158.359146,213.227951 155.015793,213.331909 
	C148.860855,213.523285 142.684860,213.604813 136.538391,213.305847 
	C132.305206,213.099945 131.233078,214.974518 131.770859,218.669403 
	C132.225906,221.795822 132.396622,224.985168 133.112274,228.048767 
	C139.444824,255.157196 156.729401,271.797760 183.495346,277.473328 
	C208.815735,282.842377 230.555893,275.632446 247.013489,254.736633 
	C249.714355,251.307434 250.056091,248.696396 247.092499,245.205963 
	C243.006271,240.393356 239.408203,235.161484 235.694992,230.041031 
	C234.947403,229.010132 234.619537,227.674866 234.098175,226.479904 
	C227.886368,240.607651 218.821991,248.717789 205.005966,252.731552 
M229.535660,183.013504 
	C231.642120,186.207489 233.671356,189.456696 235.895996,192.566132 
	C236.698074,193.687210 237.947739,195.256516 239.029999,195.286407 
	C247.275131,195.514008 255.529388,195.411118 265.636139,195.411118 
	C258.823975,185.013596 253.506134,175.381287 246.765549,166.876587 
	C220.597076,133.859528 168.811523,133.995148 143.677429,166.863998 
	C137.345596,175.144394 133.285873,184.444214 131.852173,195.617630 
	C139.402328,195.617630 146.382965,195.360001 153.332428,195.713989 
	C157.520065,195.927292 159.385956,194.629166 160.716797,190.505630 
	C166.271744,173.293869 181.918701,163.126648 199.653442,165.206314 
	C211.851959,166.636734 221.373611,173.116135 229.535660,183.013504 
M298.683472,149.105179 
	C290.356232,153.636948 283.460114,159.813309 277.934204,167.480133 
	C276.926331,168.878433 275.517212,171.230927 276.035919,172.287018 
	C279.776093,179.901779 283.965118,187.296097 288.530396,195.716766 
	C290.259247,192.591904 290.952209,190.650406 292.207397,189.193207 
	C296.935547,183.704102 300.998322,177.094406 306.843750,173.214874 
	C326.685364,160.046310 353.161377,168.577271 362.777191,190.711136 
	C364.477814,194.625793 366.560028,195.940353 370.590454,195.703796 
	C375.566193,195.411774 380.574707,195.528152 385.563782,195.663010 
	C389.220886,195.761841 390.195740,194.524765 389.215332,190.862488 
	C378.540588,150.988495 334.778625,130.285431 298.683472,149.105179 
M357.729919,273.323944 
	C379.713379,261.910583 388.433289,242.641907 390.079132,219.060074 
	C390.382294,214.716446 389.087067,213.246185 384.605865,213.288223 
	C367.794342,213.445923 350.979187,213.153275 334.165680,213.188248 
	C323.752350,213.209885 325.040863,211.681519 324.978027,222.548386 
	C324.898529,236.296310 324.954468,236.302139 338.886627,236.335144 
	C345.130157,236.349930 351.373749,236.337646 358.339813,236.337646 
	C356.371765,243.155167 352.614044,246.996384 348.502197,250.638657 
	C347.179230,251.810532 345.195679,253.264557 345.133942,254.661118 
	C344.800507,262.201996 344.976013,269.765350 344.976013,278.285278 
	C349.695557,276.480530 353.378662,275.072144 357.729919,273.323944 
M118.500046,201.135712 
	C109.671379,201.135620 100.842712,201.137009 92.014046,201.134598 
	C89.015663,201.133774 85.990707,200.889511 83.031250,201.225922 
	C81.746643,201.371964 80.596863,202.704071 79.385857,203.497467 
	C80.522316,204.328690 81.585083,205.305679 82.824883,205.932480 
	C83.490921,206.269196 84.460953,206.010452 85.293816,206.010468 
	C127.104927,206.011475 168.916046,206.011627 210.727158,206.010071 
	C211.726547,206.010025 212.880646,206.301987 213.687714,205.902481 
	C214.794312,205.354706 215.637619,204.275040 216.593765,203.423325 
	C215.712234,202.665436 214.940445,201.565170 213.920776,201.238312 
	C212.709045,200.849930 211.284210,201.116104 209.951721,201.116318 
	C179.801163,201.121307 149.650620,201.128708 118.500046,201.135712 
M319.504089,206.014633 
	C357.616455,206.014725 395.728851,206.015411 433.841217,206.012711 
	C435.338654,206.012604 436.932922,206.288055 438.300446,205.857834 
	C439.255157,205.557495 440.272461,204.368469 440.531006,203.384369 
	C440.668091,202.862610 439.371429,201.602646 438.496368,201.270660 
	C437.470886,200.881622 436.200043,201.119446 435.035645,201.119354 
	C410.736969,201.117310 386.438293,201.117783 362.139618,201.122635 
	C343.998810,201.126251 325.857574,201.086273 307.718109,201.245605 
	C306.352264,201.257599 304.999054,202.711868 303.639984,203.495667 
	C304.934296,204.332779 306.172852,205.764450 307.533691,205.892059 
	C311.163452,206.232468 314.845825,206.012085 319.504089,206.014633 
M206.725235,309.530212 
	C205.617355,310.431610 204.040375,311.115021 203.499161,312.279785 
	C202.369202,314.711609 201.751984,317.387695 200.999756,319.985321 
	C200.780457,320.742584 200.435303,321.950165 200.794113,322.314026 
	C205.223740,326.805725 202.792526,332.407928 203.287567,337.483978 
	C203.950699,344.283325 207.876877,347.932037 214.479645,346.909088 
	C215.704437,346.719391 217.428711,345.273651 217.610977,344.187500 
	C217.769852,343.240631 216.071655,341.988739 215.206879,340.861755 
	C214.115295,339.439178 212.001007,337.894348 212.141388,336.598755 
	C212.616028,332.218567 208.997650,326.408936 215.887665,323.881317 
	C216.204468,323.765106 216.374634,323.047699 216.477371,322.580444 
	C217.591141,317.515228 209.037582,316.507111 211.541718,310.843231 
	C210.535843,310.415466 209.539352,309.962952 208.518188,309.575439 
	C208.224655,309.464050 207.859970,309.540161 206.725235,309.530212 
M236.187790,324.198486 
	C236.707413,329.161407 237.500107,334.114319 237.682480,339.089600 
	C237.954330,346.506165 238.738022,347.256775 246.206238,345.651764 
	C246.206238,339.052673 246.345566,332.463806 246.163513,325.883850 
	C246.009293,320.310150 242.588181,317.555054 236.100143,317.318848 
	C228.367615,317.037323 224.026688,319.624634 223.180664,325.056305 
	C223.142776,325.299469 223.482147,325.601410 224.212891,326.827454 
	C227.744934,325.927307 231.562836,324.954315 236.187790,324.198486 
M180.065704,332.488586 
	C180.034103,324.670105 179.900833,316.850037 180.021057,309.033875 
	C180.069046,305.914703 178.775772,305.028717 175.858093,305.043365 
	C172.962234,305.057892 171.586044,305.963440 171.610001,309.047974 
	C171.695267,320.026886 171.697601,331.007416 171.599579,341.986176 
	C171.570374,345.255188 172.967285,346.319733 176.114075,346.304840 
	C179.296234,346.289825 180.110641,344.775635 180.006134,341.965668 
	C179.901154,339.142944 180.035858,336.311310 180.065704,332.488586 
M380.455200,344.640503 
	C380.423157,338.177338 380.775726,331.682831 380.251831,325.259796 
	C379.718842,318.725372 373.789154,315.371399 368.490845,318.174683 
	C367.510498,318.693329 366.733582,320.031921 366.398743,321.152222 
	C366.230560,321.714996 367.184631,323.221619 367.771454,323.304108 
	C372.012817,323.900513 371.853027,326.974030 371.850983,330.032532 
	C371.848663,333.516724 371.850525,337.000946 371.865204,340.485107 
	C371.892273,346.915344 373.544861,347.894318 380.455200,344.640503 
M192.136993,318.050659 
	C186.534195,318.141144 181.305420,324.075989 181.067719,330.768372 
	C181.009872,332.397064 180.875931,334.324860 181.630798,335.615875 
	C183.063995,338.067017 185.383514,339.995361 186.849838,342.432678 
	C189.585129,346.979340 191.132812,347.582733 196.789322,345.158997 
	C196.074280,343.671875 195.515015,342.102264 194.632538,340.742432 
	C190.382065,334.192780 186.916580,327.778809 194.435303,321.014618 
	C196.115540,319.502991 195.493591,317.978180 192.136993,318.050659 
M351.779236,333.481873 
	C351.770721,329.667236 351.664154,325.849518 351.784973,322.039001 
	C351.880371,319.030914 350.613251,317.959045 347.638550,317.982971 
	C344.662354,318.006958 342.962494,318.664917 343.034821,322.125641 
	C343.173309,328.755859 343.113007,335.394836 342.937988,342.024994 
	C342.855377,345.154480 343.917328,346.511353 347.187927,346.586823 
	C350.655121,346.666840 352.038605,345.360687 351.801788,341.927795 
	C351.630981,339.451996 351.774445,336.954529 351.779236,333.481873 
M327.905304,331.462250 
	C328.004395,334.452118 327.786621,337.494415 328.270691,340.420624 
	C329.185394,345.950256 334.715088,348.763611 339.675934,346.320404 
	C340.664154,345.833679 341.464844,344.500488 341.819153,343.387939 
	C341.997650,342.827515 341.061493,341.287994 340.493561,341.212494 
	C335.871246,340.597900 336.361725,337.154846 336.316498,334.018677 
	C336.263641,330.358704 336.221161,326.695465 336.318695,323.037476 
	C336.398682,320.037903 336.037170,317.960510 332.111206,317.969238 
	C328.245880,317.977814 327.727020,319.936646 327.874786,322.996552 
	C327.995087,325.486755 327.903259,327.987183 327.905304,331.462250 
M365.069427,323.702454 
	C365.306915,320.430115 365.165497,317.848572 360.556488,317.955353 
	C355.911621,318.062958 356.685577,321.075012 356.664795,323.793854 
	C356.617676,329.959564 356.729034,336.127014 356.637085,342.291656 
	C356.591156,345.369507 358.050781,346.317627 360.926697,346.319519 
	C363.904816,346.321442 365.112305,345.144714 365.053711,342.150970 
	C364.939514,336.320557 365.035309,330.486053 365.069427,323.702454 
M222.344269,334.042419 
	C220.006332,342.454285 223.983322,347.809509 231.920425,346.616608 
	C233.353134,346.401306 234.569016,344.743317 235.885010,343.751404 
	C234.894470,342.595581 234.124481,340.995148 232.869431,340.372589 
	C229.868820,338.884338 229.357941,336.990631 231.852036,334.843292 
	C232.345276,334.418640 233.193146,334.289703 233.503830,333.791443 
	C234.363419,332.412842 235.025558,330.911102 235.765778,329.458069 
	C234.199036,329.094543 232.328140,328.006195 231.125702,328.510803 
	C228.167496,329.752228 225.516708,331.726135 222.344269,334.042419 
M299.232483,369.629303 
	C299.654022,368.381470 300.719788,366.882568 300.353180,365.941895 
	C299.729431,364.341553 298.416412,362.271454 297.003754,361.906830 
	C295.298553,361.466705 291.658722,362.319489 291.517029,363.097351 
	C290.900909,366.479706 291.252563,370.038330 291.252563,373.532928 
	C291.678528,373.599884 292.104462,373.666840 292.530426,373.733795 
	C293.334503,372.684723 294.138580,371.635651 295.015015,370.492188 
	C296.356323,371.674957 297.614777,372.784698 299.766785,374.682343 
	C299.482391,372.432526 299.350037,371.385315 299.232483,369.629303 
M317.214691,364.844788 
	C315.472412,363.767670 313.730133,362.690552 311.563049,361.350800 
	C311.563049,365.849274 311.563049,369.614471 311.563049,373.379700 
	C311.933746,373.405090 312.304413,373.430511 312.675110,373.455933 
	C313.139893,371.870178 313.604675,370.284393 313.903839,369.263763 
	C315.770630,369.462341 317.300720,369.625122 319.050537,369.811279 
	C319.405273,370.733521 319.938538,372.119781 320.471771,373.506073 
	C320.848846,373.429688 321.225952,373.353333 321.603027,373.276947 
	C321.603027,369.591644 321.603027,365.906372 321.603027,360.628571 
	C319.579407,362.573090 318.628601,363.486725 317.214691,364.844788 
M204.488998,361.825592 
	C202.546570,362.488281 200.604141,363.151001 198.661713,363.813690 
	C199.859314,366.118225 201.056915,368.422760 202.201065,370.624420 
	C201.468735,370.743652 200.043106,370.975769 198.017441,371.305573 
	C200.610199,374.631744 203.501587,375.091309 205.614227,372.883179 
	C209.553238,368.766144 204.533691,367.321350 203.195099,366.058228 
	C204.019653,364.348816 204.549713,363.249908 204.488998,361.825592 
M260.598541,367.799652 
	C259.967773,366.276520 259.609863,364.524902 258.600159,363.319061 
	C258.028412,362.636200 255.491425,362.440552 255.363632,362.720703 
	C253.817459,366.110199 252.555679,369.629395 251.219879,373.114838 
	C251.575897,373.443695 251.931915,373.772522 252.287949,374.101379 
	C255.412216,369.842316 258.503265,371.196136 262.303589,373.302307 
	C261.815796,371.693756 261.328003,370.085175 260.598541,367.799652 
M276.768707,372.294495 
	C277.149536,372.720673 277.530365,373.146820 277.911194,373.572998 
	C280.841705,370.148499 283.984924,371.428070 287.852997,372.837646 
	C286.191040,369.000000 284.529083,365.162354 282.867126,361.324707 
	C282.221588,361.342499 281.576050,361.360321 280.930511,361.378143 
	C279.581604,364.803040 278.232727,368.227966 276.768707,372.294495 
M272.107727,362.156006 
	C270.032471,362.507812 267.957184,362.859619 265.881927,363.211426 
	C266.935028,365.789978 267.988129,368.368500 268.975555,370.786285 
	C268.421600,370.863312 266.995300,371.061676 264.879761,371.355865 
	C267.728424,374.574249 270.554352,375.091919 272.685120,372.691437 
	C276.305573,368.612732 271.543243,367.303467 269.699585,365.618073 
	C270.768677,364.507202 271.679962,363.560303 272.107727,362.156006 
M220.405350,372.297791 
	C219.328201,369.355011 218.424881,366.327240 217.055618,363.527252 
	C216.698959,362.797943 213.943481,362.362335 213.885132,362.494781 
	C212.331497,366.020752 210.986969,369.638885 209.606903,373.241333 
	C210.006836,373.470520 210.406754,373.699707 210.806686,373.928894 
	C213.341019,371.362640 215.894470,369.881134 218.720978,373.279755 
	C218.886276,373.478546 219.788681,373.064331 220.405350,372.297791 
M226.666504,369.798889 
	C224.045685,363.356537 230.287933,365.189453 232.790436,362.769287 
	C230.340347,362.045074 227.173019,361.295105 225.932816,362.510925 
	C224.261368,364.149475 223.147659,367.458130 223.534973,369.756805 
	C223.860886,371.691101 226.437424,373.710480 228.494583,374.674957 
	C229.398773,375.098846 231.487274,372.996735 233.038040,372.041565 
	C232.808640,371.719452 232.579239,371.397339 232.349854,371.075195 
	C230.617599,370.838348 228.885361,370.601501 226.666504,369.798889 
M246.856232,369.360657 
	C247.528656,367.030762 248.201096,364.700867 248.932892,362.165222 
	C246.591705,362.165222 243.811264,362.165222 242.037186,362.165222 
	C243.125290,366.290192 244.074890,369.889984 245.024475,373.489777 
	C245.343491,373.514160 245.662506,373.538544 245.981522,373.562927 
	C246.270844,372.431580 246.560181,371.300232 246.856232,369.360657 
M335.340790,307.877747 
	C333.942993,308.616455 332.374115,309.173218 331.263458,310.217346 
	C330.973206,310.490234 332.003876,313.132721 332.608734,313.206604 
	C334.218231,313.403259 335.926300,312.793121 337.595154,312.503815 
	C337.121704,310.997955 336.648254,309.492126 335.340790,307.877747 
M341.043762,310.392303 
	C341.175232,311.189789 341.220856,312.649414 341.451904,312.679382 
	C343.202393,312.906372 345.109161,313.225159 346.707458,312.709869 
	C347.374786,312.494720 347.410370,310.320282 347.733185,309.036682 
	C345.528259,309.212433 343.323334,309.388184 341.043762,310.392303 
M303.994995,365.144928 
	C303.994995,367.918976 303.994995,370.693024 303.994995,373.467072 
	C304.725311,373.449646 305.455658,373.432220 306.185974,373.414795 
	C306.185974,369.616272 306.185974,365.817780 306.185974,362.019257 
	C305.814972,361.970520 305.444000,361.921753 305.072998,361.873016 
	C304.722900,362.698242 304.372772,363.523438 303.994995,365.144928 
z"/>
<path fill="#797874" opacity="1.000000" stroke="none" 
	d="
M205.397827,252.609467 
	C218.821991,248.717789 227.886368,240.607651 234.098175,226.479904 
	C234.619537,227.674866 234.947403,229.010132 235.694992,230.041031 
	C239.408203,235.161484 243.006271,240.393356 247.092499,245.205963 
	C250.056091,248.696396 249.714355,251.307434 247.013489,254.736633 
	C230.555893,275.632446 208.815735,282.842377 183.495346,277.473328 
	C156.729401,271.797760 139.444824,255.157196 133.112274,228.048767 
	C132.396622,224.985168 132.225906,221.795822 131.770859,218.669403 
	C131.233078,214.974518 132.305206,213.099945 136.538391,213.305847 
	C142.684860,213.604813 148.860855,213.523285 155.015793,213.331909 
	C158.359146,213.227951 159.604034,214.505203 160.197723,217.785873 
	C161.021454,222.337936 162.171463,226.937759 163.959976,231.189819 
	C171.490265,249.092590 185.987640,256.575348 205.397827,252.609467 
z"/>
<path fill="#FEFDF9" opacity="1.000000" stroke="none" 
	d="
M229.298920,182.744904 
	C221.373611,173.116135 211.851959,166.636734 199.653442,165.206314 
	C181.918701,163.126648 166.271744,173.293869 160.716797,190.505630 
	C159.385956,194.629166 157.520065,195.927292 153.332428,195.713989 
	C146.382965,195.360001 139.402328,195.617630 131.852173,195.617630 
	C133.285873,184.444214 137.345596,175.144394 143.677429,166.863998 
	C168.811523,133.995148 220.597076,133.859528 246.765549,166.876587 
	C253.506134,175.381287 258.823975,185.013596 265.636139,195.411118 
	C255.529388,195.411118 247.275131,195.514008 239.029999,195.286407 
	C237.947739,195.256516 236.698074,193.687210 235.895996,192.566132 
	C233.671356,189.456696 231.642120,186.207489 229.298920,182.744904 
z"/>
<path fill="#7A7874" opacity="1.000000" stroke="none" 
	d="
M299.017151,148.944489 
	C334.778625,130.285431 378.540588,150.988495 389.215332,190.862488 
	C390.195740,194.524765 389.220886,195.761841 385.563782,195.663010 
	C380.574707,195.528152 375.566193,195.411774 370.590454,195.703796 
	C366.560028,195.940353 364.477814,194.625793 362.777191,190.711136 
	C353.161377,168.577271 326.685364,160.046310 306.843750,173.214874 
	C300.998322,177.094406 296.935547,183.704102 292.207397,189.193207 
	C290.952209,190.650406 290.259247,192.591904 288.530396,195.716766 
	C283.965118,187.296097 279.776093,179.901779 276.035919,172.287018 
	C275.517212,171.230927 276.926331,168.878433 277.934204,167.480133 
	C283.460114,159.813309 290.356232,153.636948 299.017151,148.944489 
z"/>
<path fill="#7A7874" opacity="1.000000" stroke="none" 
	d="
M357.395844,273.493835 
	C353.378662,275.072144 349.695557,276.480530 344.976013,278.285278 
	C344.976013,269.765350 344.800507,262.201996 345.133942,254.661118 
	C345.195679,253.264557 347.179230,251.810532 348.502197,250.638657 
	C352.614044,246.996384 356.371765,243.155167 358.339813,236.337646 
	C351.373749,236.337646 345.130157,236.349930 338.886627,236.335144 
	C324.954468,236.302139 324.898529,236.296310 324.978027,222.548386 
	C325.040863,211.681519 323.752350,213.209885 334.165680,213.188248 
	C350.979187,213.153275 367.794342,213.445923 384.605865,213.288223 
	C389.087067,213.246185 390.382294,214.716446 390.079132,219.060074 
	C388.433289,242.641907 379.713379,261.910583 357.395844,273.493835 
z"/>
<path fill="#FEFDF8" opacity="1.000000" stroke="none" 
	d="
M275.919525,215.034088 
	C283.089020,223.297729 289.465851,232.485565 297.680389,239.530655 
	C304.175903,245.101471 312.811066,248.290421 320.739655,252.019058 
	C323.712555,253.417145 325.205383,254.637009 325.050964,258.103973 
	C324.770844,264.393066 324.971558,270.703583 324.971558,277.857422 
	C290.239380,268.827332 266.407623,247.407974 249.261383,216.830170 
	C250.419754,215.242020 251.636063,214.290512 252.852356,213.339020 
	C255.608109,213.292023 258.363861,213.245026 262.017456,213.238586 
	C266.247192,213.361069 269.579041,213.442978 273.079468,213.762238 
	C274.138489,214.344406 275.029022,214.689240 275.919525,215.034088 
z"/>
<path fill="#F9F6E4" opacity="1.000000" stroke="none" 
	d="
M119.000053,201.135681 
	C149.650620,201.128708 179.801163,201.121307 209.951721,201.116318 
	C211.284210,201.116104 212.709045,200.849930 213.920776,201.238312 
	C214.940445,201.565170 215.712234,202.665436 216.593765,203.423325 
	C215.637619,204.275040 214.794312,205.354706 213.687714,205.902481 
	C212.880646,206.301987 211.726547,206.010025 210.727158,206.010071 
	C168.916046,206.011627 127.104927,206.011475 85.293816,206.010468 
	C84.460953,206.010452 83.490921,206.269196 82.824883,205.932480 
	C81.585083,205.305679 80.522316,204.328690 79.385849,203.497467 
	C80.596863,202.704071 81.746643,201.371964 83.031250,201.225922 
	C85.990707,200.889511 89.015663,201.133774 92.014046,201.134598 
	C100.842712,201.137009 109.671379,201.135620 119.000053,201.135681 
z"/>
<path fill="#F9F6E4" opacity="1.000000" stroke="none" 
	d="
M319.005676,206.014618 
	C314.845825,206.012085 311.163452,206.232468 307.533691,205.892059 
	C306.172852,205.764450 304.934296,204.332779 303.639984,203.495667 
	C304.999054,202.711868 306.352264,201.257599 307.718109,201.245605 
	C325.857574,201.086273 343.998810,201.126251 362.139618,201.122635 
	C386.438293,201.117783 410.736969,201.117310 435.035645,201.119354 
	C436.200043,201.119446 437.470886,200.881622 438.496368,201.270660 
	C439.371429,201.602646 440.668091,202.862610 440.531006,203.384369 
	C440.272461,204.368469 439.255157,205.557495 438.300446,205.857834 
	C436.932922,206.288055 435.338654,206.012604 433.841217,206.012711 
	C395.728851,206.015411 357.616455,206.014725 319.005676,206.014618 
z"/>
<path fill="#7C7871" opacity="1.000000" stroke="none" 
	d="
M152.878723,346.937866 
	C152.878723,346.937866 152.402405,347.022034 151.813370,347.024048 
	C150.485550,347.029816 149.746750,347.033600 149.007965,347.037384 
	C142.079010,344.882416 139.378387,340.077545 139.753860,332.983276 
	C140.034836,327.674438 139.780716,322.338837 139.824249,317.015625 
	C139.894440,308.435638 143.616287,304.568207 152.209991,304.190186 
	C154.024979,304.110382 155.853012,304.326996 157.715118,304.767853 
	C157.171951,307.016571 156.588699,308.904449 155.592743,310.808838 
	C152.025909,310.654297 149.318054,311.485565 149.221512,315.130585 
	C149.033768,322.219269 149.149353,329.317535 149.249771,336.410309 
	C149.262619,337.317932 149.677292,338.639160 150.345993,339.046936 
	C153.558044,341.005615 153.173462,343.951385 152.878723,346.937866 
z"/>
<path fill="#827C6E" opacity="1.000000" stroke="none" 
	d="
M207.126572,309.530273 
	C207.859970,309.540161 208.224655,309.464050 208.518188,309.575439 
	C209.539352,309.962952 210.535843,310.415466 211.541718,310.843231 
	C209.037582,316.507111 217.591141,317.515228 216.477371,322.580444 
	C216.374634,323.047699 216.204468,323.765106 215.887665,323.881317 
	C208.997650,326.408936 212.616028,332.218567 212.141388,336.598755 
	C212.001007,337.894348 214.115295,339.439178 215.206879,340.861755 
	C216.071655,341.988739 217.769852,343.240631 217.610977,344.187500 
	C217.428711,345.273651 215.704437,346.719391 214.479645,346.909088 
	C207.876877,347.932037 203.950699,344.283325 203.287567,337.483978 
	C202.792526,332.407928 205.223740,326.805725 200.794113,322.314026 
	C200.435303,321.950165 200.780457,320.742584 200.999756,319.985321 
	C201.751984,317.387695 202.369202,314.711609 203.499161,312.279785 
	C204.040375,311.115021 205.617355,310.431610 207.126572,309.530273 
z"/>
<path fill="#7C7971" opacity="1.000000" stroke="none" 
	d="
M301.011810,346.014130 
	C296.613129,343.352417 294.866943,339.371124 294.947815,334.329468 
	C295.048615,328.047485 294.888824,321.761230 294.991852,315.479309 
	C295.095398,309.164581 297.465851,306.409119 304.541321,305.002991 
	C305.838165,307.076721 306.417145,308.965302 306.721588,311.106873 
	C304.005035,314.797699 303.245056,335.674286 305.483368,338.921722 
	C305.849854,339.453400 306.526489,339.764648 306.926361,340.281097 
	C309.449493,343.539795 308.291351,346.135376 303.978607,346.953278 
	C303.680969,346.795807 303.364136,346.728149 302.609039,346.588013 
	C301.797211,346.288544 301.404510,346.151337 301.011810,346.014130 
z"/>
<path fill="#7B7871" opacity="1.000000" stroke="none" 
	d="
M156.005432,310.792328 
	C156.588699,308.904449 157.171951,307.016571 158.099701,304.944031 
	C165.167908,305.916412 167.937759,308.709656 168.119385,315.145050 
	C168.310760,321.925385 168.551376,328.745911 168.004715,335.486755 
	C167.759048,338.515930 165.651169,341.394135 163.882141,344.715118 
	C163.072388,345.371307 162.768799,345.653198 162.465210,345.935089 
	C162.465195,345.935089 162.209625,345.888580 161.788635,346.018250 
	C161.055664,346.416718 160.743698,346.685516 160.431732,346.954285 
	C160.431732,346.954285 159.973282,346.759003 159.973282,346.759003 
	C159.973282,346.759003 159.476181,346.793640 158.873383,346.857300 
	C157.540573,347.036011 156.810562,347.151123 156.080536,347.266205 
	C155.907715,347.208649 155.734879,347.151093 155.238190,346.619324 
	C155.362091,344.162781 155.668137,342.134125 156.295914,340.210510 
	C156.971573,338.140137 158.560104,336.203308 158.678070,334.146698 
	C159.009277,328.371887 159.025604,322.550354 158.658173,316.779572 
	C158.528030,314.735809 156.932159,312.785370 156.005432,310.792328 
z"/>
<path fill="#7C7970" opacity="1.000000" stroke="none" 
	d="
M235.784271,324.089905 
	C231.562836,324.954315 227.744934,325.927307 224.212891,326.827454 
	C223.482147,325.601410 223.142776,325.299469 223.180664,325.056305 
	C224.026688,319.624634 228.367615,317.037323 236.100143,317.318848 
	C242.588181,317.555054 246.009293,320.310150 246.163513,325.883850 
	C246.345566,332.463806 246.206238,339.052673 246.206238,345.651764 
	C238.738022,347.256775 237.954330,346.506165 237.682480,339.089600 
	C237.500107,334.114319 236.707413,329.161407 235.784271,324.089905 
z"/>
<path fill="#7A7872" opacity="1.000000" stroke="none" 
	d="
M180.065613,332.986084 
	C180.035858,336.311310 179.901154,339.142944 180.006134,341.965668 
	C180.110641,344.775635 179.296234,346.289825 176.114075,346.304840 
	C172.967285,346.319733 171.570374,345.255188 171.599579,341.986176 
	C171.697601,331.007416 171.695267,320.026886 171.610001,309.047974 
	C171.586044,305.963440 172.962234,305.057892 175.858093,305.043365 
	C178.775772,305.028717 180.069046,305.914703 180.021057,309.033875 
	C179.900833,316.850037 180.034103,324.670105 180.065613,332.986084 
z"/>
<path fill="#E8B634" opacity="1.000000" stroke="none" 
	d="
M304.304138,347.154114 
	C308.291351,346.135376 309.449493,343.539795 306.926361,340.281097 
	C306.526489,339.764648 305.849854,339.453400 305.483368,338.921722 
	C303.245056,335.674286 304.005035,314.797699 307.135925,311.104492 
	C311.141022,310.697906 313.628174,311.459686 314.139160,315.431702 
	C314.305786,316.727264 315.704956,318.952454 316.385284,318.895569 
	C318.697083,318.702454 320.939606,317.679626 323.208557,316.973694 
	C323.318909,324.739532 323.429260,332.505371 323.308838,340.183777 
	C323.051971,337.276215 323.005402,334.456116 323.003326,331.636017 
	C322.995697,321.103271 323.001160,321.103424 312.613983,321.993988 
	C312.283539,322.022308 311.845551,321.911163 311.639587,322.083008 
	C310.737854,322.835388 309.358246,323.570221 309.191345,324.498291 
	C309.009979,325.506866 309.659637,327.148956 310.498962,327.776581 
	C315.116119,331.229309 315.529022,336.051544 311.488495,340.257324 
	C309.227264,342.611084 308.692108,345.046173 312.017395,347.071472 
	C309.554810,347.165985 307.092255,347.260498 304.304138,347.154114 
z"/>
<path fill="#7E7A6E" opacity="1.000000" stroke="none" 
	d="
M264.628418,346.026611 
	C264.638519,351.875580 261.195221,355.726929 255.696136,355.559753 
	C254.442322,355.521606 252.274857,354.206909 252.213379,353.357788 
	C252.112167,351.959442 253.070694,349.530762 254.135803,349.170044 
	C258.291656,347.762482 257.870636,345.254883 256.746155,342.076172 
	C254.045761,334.442780 251.469696,326.765411 248.842133,319.101929 
	C255.378357,317.056366 256.334625,317.524811 257.956482,323.151855 
	C258.923126,326.505676 259.863312,329.867126 260.943024,333.976807 
	C262.256561,338.494537 263.442474,342.260559 264.628418,346.026611 
z"/>
<path fill="#EAB731" opacity="1.000000" stroke="none" 
	d="
M155.592743,310.808838 
	C156.932159,312.785370 158.528030,314.735809 158.658173,316.779572 
	C159.025604,322.550354 159.009277,328.371887 158.678070,334.146698 
	C158.560104,336.203308 156.971573,338.140137 156.295914,340.210510 
	C155.668137,342.134125 155.362091,344.162781 154.970093,346.566528 
	C154.548447,346.983948 154.071060,346.979980 153.236206,346.956970 
	C153.173462,343.951385 153.558044,341.005615 150.345993,339.046936 
	C149.677292,338.639160 149.262619,337.317932 149.249771,336.410309 
	C149.149353,329.317535 149.033768,322.219269 149.221512,315.130585 
	C149.318054,311.485565 152.025909,310.654297 155.592743,310.808838 
z"/>
<path fill="#7F7B6F" opacity="1.000000" stroke="none" 
	d="
M380.302521,345.023926 
	C373.544861,347.894318 371.892273,346.915344 371.865204,340.485107 
	C371.850525,337.000946 371.848663,333.516724 371.850983,330.032532 
	C371.853027,326.974030 372.012817,323.900513 367.771454,323.304108 
	C367.184631,323.221619 366.230560,321.714996 366.398743,321.152222 
	C366.733582,320.031921 367.510498,318.693329 368.490845,318.174683 
	C373.789154,315.371399 379.718842,318.725372 380.251831,325.259796 
	C380.775726,331.682831 380.423157,338.177338 380.302521,345.023926 
z"/>
<path fill="#7B7870" opacity="1.000000" stroke="none" 
	d="
M312.300049,346.927917 
	C308.692108,345.046173 309.227264,342.611084 311.488495,340.257324 
	C315.529022,336.051544 315.116119,331.229309 310.498962,327.776581 
	C309.659637,327.148956 309.009979,325.506866 309.191345,324.498291 
	C309.358246,323.570221 310.737854,322.835388 311.639587,322.083008 
	C311.845551,321.911163 312.283539,322.022308 312.613983,321.993988 
	C323.001160,321.103424 322.995697,321.103271 323.003326,331.636017 
	C323.005402,334.456116 323.051971,337.276215 323.145935,340.562744 
	C323.182831,341.462097 323.151886,341.895020 323.095642,343.021790 
	C323.038940,344.468201 323.007538,345.220795 322.976135,345.973328 
	C321.653015,346.005066 320.329865,346.036774 318.484131,345.751465 
	C317.653839,345.255829 317.346161,345.077179 317.038452,344.898529 
	C317.038452,344.898529 317.097443,344.925476 316.984131,344.734222 
	C316.549072,344.680695 316.227264,344.818451 315.905487,344.956177 
	C314.797882,345.565552 313.690277,346.174957 312.300049,346.927917 
z"/>
<path fill="#7F7A6D" opacity="1.000000" stroke="none" 
	d="
M192.518433,318.055359 
	C195.493591,317.978180 196.115540,319.502991 194.435303,321.014618 
	C186.916580,327.778809 190.382065,334.192780 194.632538,340.742432 
	C195.515015,342.102264 196.074280,343.671875 196.789322,345.158997 
	C191.132812,347.582733 189.585129,346.979340 186.849838,342.432678 
	C185.383514,339.995361 183.063995,338.067017 181.630798,335.615875 
	C180.875931,334.324860 181.009872,332.397064 181.067719,330.768372 
	C181.305420,324.075989 186.534195,318.141144 192.518433,318.055359 
z"/>
<path fill="#817C6D" opacity="1.000000" stroke="none" 
	d="
M351.778503,333.974304 
	C351.774445,336.954529 351.630981,339.451996 351.801788,341.927795 
	C352.038605,345.360687 350.655121,346.666840 347.187927,346.586823 
	C343.917328,346.511353 342.855377,345.154480 342.937988,342.024994 
	C343.113007,335.394836 343.173309,328.755859 343.034821,322.125641 
	C342.962494,318.664917 344.662354,318.006958 347.638550,317.982971 
	C350.613251,317.959045 351.880371,319.030914 351.784973,322.039001 
	C351.664154,325.849518 351.770721,329.667236 351.778503,333.974304 
z"/>
<path fill="#7C796F" opacity="1.000000" stroke="none" 
	d="
M327.905396,330.972656 
	C327.903259,327.987183 327.995087,325.486755 327.874786,322.996552 
	C327.727020,319.936646 328.245880,317.977814 332.111206,317.969238 
	C336.037170,317.960510 336.398682,320.037903 336.318695,323.037476 
	C336.221161,326.695465 336.263641,330.358704 336.316498,334.018677 
	C336.361725,337.154846 335.871246,340.597900 340.493561,341.212494 
	C341.061493,341.287994 341.997650,342.827515 341.819153,343.387939 
	C341.464844,344.500488 340.664154,345.833679 339.675934,346.320404 
	C334.715088,348.763611 329.185394,345.950256 328.270691,340.420624 
	C327.786621,337.494415 328.004395,334.452118 327.905396,330.972656 
z"/>
<path fill="#7C7871" opacity="1.000000" stroke="none" 
	d="
M365.056763,324.177856 
	C365.035309,330.486053 364.939514,336.320557 365.053711,342.150970 
	C365.112305,345.144714 363.904816,346.321442 360.926697,346.319519 
	C358.050781,346.317627 356.591156,345.369507 356.637085,342.291656 
	C356.729034,336.127014 356.617676,329.959564 356.664795,323.793854 
	C356.685577,321.075012 355.911621,318.062958 360.556488,317.955353 
	C365.165497,317.848572 365.306915,320.430115 365.056763,324.177856 
z"/>
<path fill="#807B6D" opacity="1.000000" stroke="none" 
	d="
M222.543274,333.723938 
	C225.516708,331.726135 228.167496,329.752228 231.125702,328.510803 
	C232.328140,328.006195 234.199036,329.094543 235.765778,329.458069 
	C235.025558,330.911102 234.363419,332.412842 233.503830,333.791443 
	C233.193146,334.289703 232.345276,334.418640 231.852036,334.843292 
	C229.357941,336.990631 229.868820,338.884338 232.869431,340.372589 
	C234.124481,340.995148 234.894470,342.595581 235.885010,343.751404 
	C234.569016,344.743317 233.353134,346.401306 231.920425,346.616608 
	C223.983322,347.809509 220.006332,342.454285 222.543274,333.723938 
z"/>
<path fill="#7F7A6E" opacity="1.000000" stroke="none" 
	d="
M262.683411,333.860199 
	C263.372253,330.604645 264.051270,327.347015 264.751923,324.094025 
	C266.204651,317.349365 266.414368,317.221344 274.355408,318.818665 
	C271.860657,326.903717 269.387787,334.917786 266.534241,343.191010 
	C264.996857,340.253510 263.840149,337.056854 262.683411,333.860199 
z"/>
<path fill="#7D796F" opacity="1.000000" stroke="none" 
	d="
M323.164978,316.642517 
	C320.939606,317.679626 318.697083,318.702454 316.385284,318.895569 
	C315.704956,318.952454 314.305786,316.727264 314.139160,315.431702 
	C313.628174,311.459686 311.141022,310.697906 307.410461,310.851532 
	C306.417145,308.965302 305.838165,307.076721 304.904419,305.018005 
	C314.505920,302.548126 320.429077,305.263519 323.045868,313.898987 
	C323.112335,314.501282 323.205627,314.980713 323.205627,314.980713 
	C323.177551,315.424255 323.149475,315.867828 323.164978,316.642517 
z"/>
<path fill="#FAF5D8" opacity="1.000000" stroke="none" 
	d="
M244.818512,210.855713 
	C243.422409,209.805679 242.026306,208.755630 240.244797,207.415710 
	C239.631348,208.289032 238.662521,209.668243 236.726959,212.423691 
	C236.222229,208.214783 235.891068,205.453369 235.559921,202.691956 
	C235.038055,202.562790 234.516190,202.433624 233.994324,202.304459 
	C233.137329,205.172012 232.280334,208.039551 231.423340,210.907104 
	C231.076660,210.962509 230.729980,211.017899 230.383301,211.073303 
	C229.404755,207.671432 228.426208,204.269562 227.287460,200.310715 
	C230.656509,200.310715 234.318619,200.310715 238.379807,200.310715 
	C238.900421,201.250549 239.611954,202.535080 240.366272,203.896820 
	C241.892303,202.366806 243.102249,201.153702 244.607635,200.462891 
	C244.874878,204.275360 244.846695,207.565552 244.818512,210.855713 
z"/>
<path fill="#8A8061" opacity="1.000000" stroke="none" 
	d="
M299.225067,369.983704 
	C299.350037,371.385315 299.482391,372.432526 299.766785,374.682343 
	C297.614777,372.784698 296.356323,371.674957 295.015015,370.492188 
	C294.138580,371.635651 293.334503,372.684723 292.530426,373.733795 
	C292.104462,373.666840 291.678528,373.599884 291.252563,373.532928 
	C291.252563,370.038330 290.900909,366.479706 291.517029,363.097351 
	C291.658722,362.319489 295.298553,361.466705 297.003754,361.906830 
	C298.416412,362.271454 299.729431,364.341553 300.353180,365.941895 
	C300.719788,366.882568 299.654022,368.381470 299.225067,369.983704 
z"/>
<path fill="#897E63" opacity="1.000000" stroke="none" 
	d="
M317.446228,364.622559 
	C318.628601,363.486725 319.579407,362.573090 321.603027,360.628571 
	C321.603027,365.906372 321.603027,369.591644 321.603027,373.276947 
	C321.225952,373.353333 320.848846,373.429688 320.471771,373.506073 
	C319.938538,372.119781 319.405273,370.733521 319.050537,369.811279 
	C317.300720,369.625122 315.770630,369.462341 313.903839,369.263763 
	C313.604675,370.284393 313.139893,371.870178 312.675110,373.455933 
	C312.304413,373.430511 311.933746,373.405090 311.563049,373.379700 
	C311.563049,369.614471 311.563049,365.849274 311.563049,361.350800 
	C313.730133,362.690552 315.472412,363.767670 317.446228,364.622559 
z"/>
<path fill="#FAF3D4" opacity="1.000000" stroke="none" 
	d="
M252.965790,213.001251 
	C251.636063,214.290512 250.419754,215.242020 249.144348,216.500122 
	C248.623840,215.499557 248.162399,214.192413 247.700958,212.885269 
	C248.120239,212.690887 248.539520,212.496521 248.958786,212.302139 
	C248.375870,212.051285 247.792953,211.800446 247.045074,210.843872 
	C246.912384,206.752579 246.944641,203.366974 246.976898,199.981384 
	C246.976898,199.981384 246.999191,200.002747 247.432831,199.990936 
	C249.916046,199.994125 251.965637,200.009125 254.015228,200.024139 
	C253.156250,201.244781 252.297256,202.465424 251.498093,203.601044 
	C251.937317,203.979019 252.794540,204.716705 253.651749,205.454376 
	C252.775314,206.098206 251.898880,206.742004 250.766907,207.573547 
	C252.042892,208.064911 253.264343,208.535278 254.873840,209.155060 
	C254.206955,210.458817 253.643082,211.561157 252.965790,213.001251 
z"/>
<path fill="#96865B" opacity="1.000000" stroke="none" 
	d="
M204.784393,361.988312 
	C204.549713,363.249908 204.019653,364.348816 203.195099,366.058228 
	C204.533691,367.321350 209.553238,368.766144 205.614227,372.883179 
	C203.501587,375.091309 200.610199,374.631744 198.017441,371.305573 
	C200.043106,370.975769 201.468735,370.743652 202.201065,370.624420 
	C201.056915,368.422760 199.859314,366.118225 198.661713,363.813690 
	C200.604141,363.151001 202.546570,362.488281 204.784393,361.988312 
z"/>
<path fill="#FAF5D8" opacity="1.000000" stroke="none" 
	d="
M259.999023,211.002472 
	C259.882507,207.600800 259.765961,204.199127 260.074890,200.327576 
	C260.670197,199.803970 260.839966,199.750229 261.009705,199.696503 
	C262.630920,199.818039 264.252106,199.939575 266.430298,200.433258 
	C267.098938,202.404236 266.845978,204.141174 267.389648,205.576340 
	C269.123199,210.152512 266.452057,210.789719 262.992676,210.916260 
	C261.995056,210.952744 260.996918,210.974152 259.999023,211.002472 
z"/>
<path fill="#8A7F63" opacity="1.000000" stroke="none" 
	d="
M260.719360,368.138123 
	C261.328003,370.085175 261.815796,371.693756 262.303589,373.302307 
	C258.503265,371.196136 255.412216,369.842316 252.287949,374.101379 
	C251.931915,373.772522 251.575897,373.443695 251.219879,373.114838 
	C252.555679,369.629395 253.817459,366.110199 255.363632,362.720703 
	C255.491425,362.440552 258.028412,362.636200 258.600159,363.319061 
	C259.609863,364.524902 259.967773,366.276520 260.719360,368.138123 
z"/>
<path fill="#8B8061" opacity="1.000000" stroke="none" 
	d="
M276.826263,371.973694 
	C278.232727,368.227966 279.581604,364.803040 280.930511,361.378143 
	C281.576050,361.360321 282.221588,361.342499 282.867126,361.324707 
	C284.529083,365.162354 286.191040,369.000000 287.852997,372.837646 
	C283.984924,371.428070 280.841705,370.148499 277.911194,373.572998 
	C277.530365,373.146820 277.149536,372.720673 276.826263,371.973694 
z"/>
<path fill="#92825E" opacity="1.000000" stroke="none" 
	d="
M272.349487,362.384705 
	C271.679962,363.560303 270.768677,364.507202 269.699585,365.618073 
	C271.543243,367.303467 276.305573,368.612732 272.685120,372.691437 
	C270.554352,375.091919 267.728424,374.574249 264.879761,371.355865 
	C266.995300,371.061676 268.421600,370.863312 268.975555,370.786285 
	C267.988129,368.368500 266.935028,365.789978 265.881927,363.211426 
	C267.957184,362.859619 270.032471,362.507812 272.349487,362.384705 
z"/>
<path fill="#8A7F63" opacity="1.000000" stroke="none" 
	d="
M220.376709,372.616577 
	C219.788681,373.064331 218.886276,373.478546 218.720978,373.279755 
	C215.894470,369.881134 213.341019,371.362640 210.806686,373.928894 
	C210.406754,373.699707 210.006836,373.470520 209.606903,373.241333 
	C210.986969,369.638885 212.331497,366.020752 213.885132,362.494781 
	C213.943481,362.362335 216.698959,362.797943 217.055618,363.527252 
	C218.424881,366.327240 219.328201,369.355011 220.376709,372.616577 
z"/>
<path fill="#92825E" opacity="1.000000" stroke="none" 
	d="
M226.909805,370.081787 
	C228.885361,370.601501 230.617599,370.838348 232.349854,371.075195 
	C232.579239,371.397339 232.808640,371.719452 233.038040,372.041565 
	C231.487274,372.996735 229.398773,375.098846 228.494583,374.674957 
	C226.437424,373.710480 223.860886,371.691101 223.534973,369.756805 
	C223.147659,367.458130 224.261368,364.149475 225.932816,362.510925 
	C227.173019,361.295105 230.340347,362.045074 232.790436,362.769287 
	C230.287933,365.189453 224.045685,363.356537 226.909805,370.081787 
z"/>
<path fill="#F9F0CF" opacity="1.000000" stroke="none" 
	d="
M287.068756,202.542526 
	C285.750702,202.732925 284.432648,202.923340 283.907196,202.999252 
	C284.608978,205.227859 285.219727,207.167389 285.830505,209.106934 
	C283.666931,209.649490 281.503357,210.192047 278.897369,210.315369 
	C279.592926,209.003052 280.730896,208.109955 282.250549,206.917313 
	C278.632050,205.814087 277.200378,203.715195 279.374939,200.307022 
	C281.992584,200.226227 284.610199,200.145432 287.503357,200.294617 
	C287.542175,201.197250 287.305481,201.869888 287.068756,202.542526 
z"/>
<path fill="#F9F3D6" opacity="1.000000" stroke="none" 
	d="
M276.815582,210.883514 
	C276.815582,210.883514 276.408447,211.015640 275.781525,211.027130 
	C270.561035,211.633926 268.487030,209.858749 269.303314,205.061111 
	C269.571960,203.482193 269.366211,201.822571 269.377380,200.199860 
	C269.377380,200.199860 269.719116,200.025604 270.292297,199.941925 
	C272.572815,199.823532 274.280182,199.788803 275.987549,199.754089 
	C275.987549,199.754089 276.425781,199.917786 276.609192,200.346527 
	C275.534088,201.555130 274.275574,202.334991 272.869446,203.206329 
	C273.937592,203.912964 274.959045,204.588699 276.217316,205.421097 
	C274.848907,206.294968 273.902679,206.899246 273.373138,207.237427 
	C274.675171,208.616501 275.745392,209.750000 276.815582,210.883514 
z"/>
<path fill="#8B8061" opacity="1.000000" stroke="none" 
	d="
M246.852875,369.764771 
	C246.560181,371.300232 246.270844,372.431580 245.981522,373.562927 
	C245.662506,373.538544 245.343491,373.514160 245.024475,373.489777 
	C244.074890,369.889984 243.125290,366.290192 242.037186,362.165222 
	C243.811264,362.165222 246.591705,362.165222 248.932892,362.165222 
	C248.201096,364.700867 247.528656,367.030762 246.852875,369.764771 
z"/>
<path fill="#EDC44A" opacity="1.000000" stroke="none" 
	d="
M268.927246,200.185959 
	C269.366211,201.822571 269.571960,203.482193 269.303314,205.061111 
	C268.487030,209.858749 270.561035,211.633926 275.582031,211.104660 
	C275.468414,211.640274 274.927368,212.109879 273.922363,212.908752 
	C273.275909,213.333664 273.093414,213.429276 272.910919,213.524902 
	C269.579041,213.442978 266.247192,213.361069 262.470612,213.171722 
	C261.477264,212.522232 260.928619,211.980148 260.189514,211.220276 
	C260.996918,210.974152 261.995056,210.952744 262.992676,210.916260 
	C266.452057,210.789719 269.123199,210.152512 267.389648,205.576340 
	C266.845978,204.141174 267.098938,202.404236 266.831726,200.496552 
	C267.276520,200.182465 267.876801,200.177261 268.927246,200.185959 
z"/>
<path fill="#FDFAEB" opacity="1.000000" stroke="none" 
	d="
M287.411255,202.763550 
	C287.305481,201.869888 287.542175,201.197250 287.890961,200.281494 
	C290.129517,200.038376 292.256012,200.038376 294.438934,200.038376 
	C293.208466,203.865097 292.088684,207.347702 290.497253,212.297073 
	C289.291565,208.204391 288.522675,205.594482 287.411255,202.763550 
z"/>
<path fill="#ECC95B" opacity="1.000000" stroke="none" 
	d="
M277.256714,210.800064 
	C275.745392,209.750000 274.675171,208.616501 273.373138,207.237427 
	C273.902679,206.899246 274.848907,206.294968 276.217316,205.421097 
	C274.959045,204.588699 273.937592,203.912964 272.869446,203.206329 
	C274.275574,202.334991 275.534088,201.555130 276.828369,200.428116 
	C277.422760,200.123459 277.981293,200.165970 278.957397,200.257751 
	C277.200378,203.715195 278.632050,205.814087 282.250549,206.917313 
	C280.730896,208.109955 279.592926,209.003052 278.513092,210.202271 
	C278.280121,210.577774 277.988983,210.647186 277.256714,210.800064 
z"/>
<path fill="#857E67" opacity="1.000000" stroke="none" 
	d="
M335.757812,307.932007 
	C336.648254,309.492126 337.121704,310.997955 337.595154,312.503815 
	C335.926300,312.793121 334.218231,313.403259 332.608734,313.206604 
	C332.003876,313.132721 330.973206,310.490234 331.263458,310.217346 
	C332.374115,309.173218 333.942993,308.616455 335.757812,307.932007 
z"/>
<path fill="#7C786C" opacity="1.000000" stroke="none" 
	d="
M341.081085,309.978088 
	C343.323334,309.388184 345.528259,309.212433 347.733185,309.036682 
	C347.410370,310.320282 347.374786,312.494720 346.707458,312.709869 
	C345.109161,313.225159 343.202393,312.906372 341.451904,312.679382 
	C341.220856,312.649414 341.175232,311.189789 341.081085,309.978088 
z"/>
<path fill="#92825E" opacity="1.000000" stroke="none" 
	d="
M304.008850,364.746796 
	C304.372772,363.523438 304.722900,362.698242 305.072998,361.873016 
	C305.444000,361.921753 305.814972,361.970520 306.185974,362.019257 
	C306.185974,365.817780 306.185974,369.616272 306.185974,373.414795 
	C305.455658,373.432220 304.725311,373.449646 303.994995,373.467072 
	C303.994995,370.693024 303.994995,367.918976 304.008850,364.746796 
z"/>
<path fill="#CEA849" opacity="1.000000" stroke="none" 
	d="
M262.411224,333.869446 
	C263.840149,337.056854 264.996857,340.253510 266.456177,343.553680 
	C266.250275,344.349121 265.741760,345.041077 264.930817,345.879822 
	C263.442474,342.260559 262.256561,338.494537 261.061279,334.340118 
	C261.414276,333.927399 261.776642,333.903046 262.411224,333.869446 
z"/>
<path fill="#ECC95B" opacity="1.000000" stroke="none" 
	d="
M246.625916,199.986145 
	C246.944641,203.366974 246.912384,206.752579 246.861160,210.600311 
	C246.392426,211.016159 245.942657,210.969879 245.155701,210.889664 
	C244.846695,207.565552 244.874878,204.275360 244.888641,200.535889 
	C245.341125,200.054688 245.808029,200.022781 246.625916,199.986145 
z"/>
<path fill="#ECC95B" opacity="1.000000" stroke="none" 
	d="
M253.710419,199.810333 
	C251.965637,200.009125 249.916046,199.994125 247.427856,199.976715 
	C249.128036,199.848404 251.266815,199.722473 253.710419,199.810333 
z"/>
<path fill="#E8B634" opacity="1.000000" stroke="none" 
	d="
M323.233765,345.871002 
	C323.007538,345.220795 323.038940,344.468201 323.141083,343.345215 
	C323.305023,343.906067 323.398224,344.837341 323.233765,345.871002 
z"/>
<path fill="#EDC44A" opacity="1.000000" stroke="none" 
	d="
M275.676819,199.599396 
	C274.280182,199.788803 272.572815,199.823532 270.439697,199.819244 
	C271.798004,199.668396 273.582062,199.556564 275.676819,199.599396 
z"/>
<path fill="#FAF3D4" opacity="1.000000" stroke="none" 
	d="
M273.079468,213.762238 
	C273.093414,213.429276 273.275909,213.333664 273.736115,213.102173 
	C274.594208,213.469528 275.174591,213.972778 275.837280,214.755051 
	C275.029022,214.689240 274.138489,214.344406 273.079468,213.762238 
z"/>
<path fill="#EAB731" opacity="1.000000" stroke="none" 
	d="
M156.316849,347.390442 
	C156.810562,347.151123 157.540573,347.036011 158.641159,346.947388 
	C158.192200,347.154144 157.372681,347.334442 156.316849,347.390442 
z"/>
<path fill="#EAB731" opacity="1.000000" stroke="none" 
	d="
M149.225571,347.195953 
	C149.746750,347.033600 150.485550,347.029816 151.586182,347.106903 
	C151.113068,347.243378 150.278122,347.298950 149.225571,347.195953 
z"/>
<path fill="#E8B634" opacity="1.000000" stroke="none" 
	d="
M301.253723,346.195648 
	C301.404510,346.151337 301.797211,346.288544 302.381348,346.679626 
	C302.213745,346.748016 301.854675,346.562592 301.253723,346.195648 
z"/>
<path fill="#EAB731" opacity="1.000000" stroke="none" 
	d="
M160.705475,346.822968 
	C160.743698,346.685516 161.055664,346.416718 161.677200,346.084961 
	C161.650925,346.245239 161.315063,346.468445 160.705475,346.822968 
z"/>
<path fill="#E8B634" opacity="1.000000" stroke="none" 
	d="
M317.210205,345.096802 
	C317.346161,345.077179 317.653839,345.255829 318.091431,345.676086 
	C317.941559,345.710144 317.661743,345.502625 317.210205,345.096802 
z"/>
<path fill="#EAB731" opacity="1.000000" stroke="none" 
	d="
M162.739349,345.794250 
	C162.768799,345.653198 163.072388,345.371307 163.672073,344.989014 
	C163.649933,345.143555 163.331711,345.398468 162.739349,345.794250 
z"/>
<path fill="#E8B634" opacity="1.000000" stroke="none" 
	d="
M316.207458,344.944153 
	C316.227264,344.818451 316.549072,344.680695 316.990265,344.702393 
	C316.909576,344.885254 316.709503,344.908691 316.207458,344.944153 
z"/>
<path fill="#EDC44A" opacity="1.000000" stroke="none" 
	d="
M260.873718,199.634766 
	C260.839966,199.750229 260.670197,199.803970 260.234802,199.886017 
	C260.159302,199.649002 260.415466,199.535233 260.873718,199.634766 
z"/>
<path fill="#E8B634" opacity="1.000000" stroke="none" 
	d="
M323.265930,314.864624 
	C323.205627,314.980713 323.112335,314.501282 323.138916,314.258545 
	C323.337982,314.235596 323.391571,314.479828 323.265930,314.864624 
z"/>
</svg>